<?xml version="1.0" encoding="UTF-8"?>
<svg width="346px" height="356px" viewBox="0 0 346 356" version="1.1" xmlns="http://www.w3.org/2000/svg" xmlns:xlink="http://www.w3.org/1999/xlink">
    <!-- Generator: Sketch 61 (89581) - https://sketch.com -->
    <title>Group 5</title>
    <desc>Created with Sketch.</desc>
    <defs>
        <linearGradient x1="131.059291%" y1="54.9371789%" x2="-2.84217094e-12%" y2="64.751311%" id="linearGradient-1">
            <stop stop-color="#FC0000" offset="0%"></stop>
            <stop stop-color="#FD2F6A" offset="100%"></stop>
        </linearGradient>
    </defs>
    <g id="DESIGN-V-1" stroke="none" stroke-width="1" fill="none" fill-rule="evenodd">
        <g id="404-Page" transform="translate(-578.000000, -147.000000)">
            <g id="Group-5" transform="translate(565.000000, 132.000000)">
                <path d="M356,198.00063 C356,291.889344 279.886823,368 185.99937,368 C92.110656,368 16,291.889344 16,198.00063 C16,104.111916 92.110656,28 185.99937,28 C279.886823,28 356,104.111916 356,198.00063" id="Fill-1-Copy-3" stroke="#001E57" stroke-width="6" fill="#001E57"></path>
                <g id="Group">
                    <g id="Group-3" transform="translate(185.633909, 185.543578) rotate(-5.000000) translate(-185.633909, -185.543578) translate(15.133909, 15.043578)" fill="#FFFFFF">
                        <path d="M340.704613,170.114848 C340.704613,264.064006 264.655428,340.22366 170.846909,340.22366 C77.0371313,340.22366 0.990464598,264.064006 0.990464598,170.114848 C0.990464598,76.1656904 77.0371313,0.00477474393 170.846909,0.00477474393 C264.655428,0.00477474393 340.704613,76.1656904 340.704613,170.114848" id="Fill-1"></path>
                    </g>
                    <path d="M337.459778,132.192121 C315.026074,64.5299619 251.322667,15.7242221 176.230519,15.7242221 C101.137111,15.7242221 37.4337037,64.5299619 15,132.192121 L337.459778,132.192121 Z" id="Fill-4" fill="url(#linearGradient-1)" style="mix-blend-mode: multiply;" transform="translate(176.229889, 73.958172) rotate(-5.000000) translate(-176.229889, -73.958172) "></path>
                    <path d="M34.5021519,238.625382 C56.9345963,306.287541 120.638004,355.09202 195.731411,355.09202 C270.823559,355.09202 334.526967,306.287541 356.96067,238.625382 L34.5021519,238.625382 Z" id="Fill-6" fill="#5400FF" style="mix-blend-mode: multiply;" transform="translate(195.731411, 296.858701) rotate(-5.000000) translate(-195.731411, -296.858701) "></path>
                    <path d="M86.3620512,183.622866 L72.3301253,201.640634 L86.3620512,201.640634 L86.3620512,183.622866 Z M106.11731,212.072703 L110.593977,222.287858 L110.593977,224.011823 L81.7141253,224.011823 L81.7141253,222.287858 L86.1895327,212.201338 L86.1895327,208.019431 L64.4106438,208.019431 L63.9812364,205.476992 L97.8112364,161.941515 L106.11731,161.941515 L106.11731,201.640634 L113.993977,201.640634 L113.993977,208.019431 L106.11731,208.019431 L106.11731,212.072703 Z" id="Fill-8" fill="#FD2F55" transform="translate(88.987607, 192.976669) rotate(-5.000000) translate(-88.987607, -192.976669) "></path>
                    <path d="M154.614922,209.21754 C155.777219,204.517308 156.207885,197.448673 156.207885,187.79346 C156.207885,178.138247 155.777219,171.026733 154.614922,166.370641 C153.409811,161.715809 151.47307,159.430641 148.502478,159.430641 C145.533145,159.430641 143.682033,161.715809 142.606626,166.370641 C141.529959,171.026733 141.186182,178.138247 141.186182,187.794721 C141.186182,197.449934 141.529959,204.518569 142.606626,209.21754 C143.682033,213.916511 145.533145,216.200418 148.502478,216.200418 C151.5587,216.200418 153.452626,213.916511 154.614922,209.21754 M128.444996,164.776572 C133.437959,159.129231 140.538922,155.854076 148.502478,155.854076 C156.550404,155.854076 163.652626,159.129231 168.816848,164.776572 C173.939515,170.46553 177.081367,178.440918 177.081367,187.794721 C177.081367,197.148524 173.939515,205.165529 168.816848,210.811609 C163.652626,216.501828 156.550404,219.821123 148.502478,219.821123 C140.538922,219.821123 133.437959,216.501828 128.444996,210.811609 C123.409219,205.165529 120.352996,197.148524 120.352996,187.794721 C120.352996,178.440918 123.409219,170.46553 128.444996,164.776572" id="Fill-10" fill="#FD2F55" transform="translate(148.717182, 187.837599) rotate(-5.000000) translate(-148.717182, -187.837599) "></path>
                    <path d="M202.163818,173.491524 L188.131892,191.509292 L202.163818,191.509292 L202.163818,173.491524 Z M221.919078,201.941361 L226.395744,212.156516 L226.395744,213.880481 L197.515892,213.880481 L197.515892,212.156516 L201.9913,202.069997 L201.9913,197.888089 L180.212411,197.888089 L179.783004,195.34565 L213.613004,151.810174 L221.919078,151.810174 L221.919078,191.509292 L229.795744,191.509292 L229.795744,197.888089 L221.919078,197.888089 L221.919078,201.941361 Z" id="Fill-12" fill="#FD2F55" transform="translate(204.789374, 182.845327) rotate(-5.000000) translate(-204.789374, -182.845327) "></path>
                    <path d="M248.9199,168.329873 C248.63027,171.190117 247.544789,173.413489 245.640789,175.134932 C243.738048,176.856375 241.068418,178.10111 237.577752,179.053263 L236.810863,177.836273 C238.053752,176.909342 238.766492,175.982411 239.270196,174.923062 C239.771381,173.890196 239.982937,172.777879 240.116418,171.507921 C240.222196,170.475056 239.982937,169.362739 239.506937,168.303389 C239.030937,167.270524 238.344641,166.290626 237.604196,165.549081 L246.673381,161.551298 C248.365826,163.034387 249.237233,165.46963 248.9199,168.329873" id="Fill-14" fill="#FD2F55" transform="translate(242.897600, 170.302281) rotate(-5.000000) translate(-242.897600, -170.302281) "></path>
                    <path d="M263.103338,175.44941 C262.337708,177.01195 261.914597,179.526644 261.914597,183.419753 C261.914597,186.967312 262.311264,189.536235 263.076894,191.151742 C263.843783,192.765989 265.033783,193.586985 266.645634,193.586985 C267.491857,193.586985 268.602523,193.05731 269.212005,192.396478 L269.212005,177.197336 C269.000449,174.734349 268.390968,173.304227 266.303116,173.304227 C264.955708,173.304227 263.845042,173.88687 263.103338,175.44941 L263.103338,175.44941 Z M266.962968,161.203683 L266.962968,160.172078 L280.421931,157.391286 L281.109486,158.132831 L280.658671,163.931508 L280.658671,190.35723 L283.250227,195.442107 L283.250227,196.341293 L270.823857,199.01615 L269.554523,194.806498 C268.577338,195.864586 267.33319,196.950419 265.827116,197.718447 C264.319783,198.486476 262.468671,199.01615 260.275042,199.01615 C257.181042,199.01615 254.642375,197.691964 252.871857,195.38914 C251.100079,193.085055 250.09519,189.880523 250.09519,186.066865 C250.09519,181.539408 251.549634,177.674044 254.194079,174.919735 C256.81082,172.191911 260.564671,170.577664 265.192449,170.577664 C266.698523,170.577664 268.020745,170.76305 269.212005,171.160306 L269.212005,164.355247 L266.962968,161.203683 Z" id="Fill-16" fill="#FD2F55" transform="translate(266.672708, 178.203718) rotate(-5.000000) translate(-266.672708, -178.203718) "></path>
                    <polygon id="Fill-18" fill="#FFFFFF" transform="translate(137.512819, 279.918224) rotate(-5.000000) translate(-137.512819, -279.918224) " points="143.40993 264.976353 151.428893 264.164185 152.581116 273.605006 151.150597 273.584828 143.387264 267.667605 142.40756 267.667605 142.40756 289.796657 144.625116 294.858834 144.625116 295.71388 130.314893 295.71388 130.314893 294.858834 132.553856 289.796657 132.553856 267.667605 131.700079 267.667605 123.89393 273.584828 122.444523 273.584828 123.552671 264.122568 131.742893 264.976353"></polygon>
                    <path d="M165.548774,289.924432 C166.060033,288.557367 166.381144,286.293638 166.381144,282.725901 C166.381144,279.159425 166.060033,276.809939 165.527367,275.314239 C164.9947,273.818538 164.247959,273.242202 163.329959,273.242202 C162.456033,273.242202 161.709293,273.818538 161.198033,275.314239 C160.686774,276.809939 160.38707,279.159425 160.38707,282.725901 C160.38707,286.293638 160.706922,288.557367 161.240848,289.924432 C161.752107,291.291498 162.520256,291.783338 163.372774,291.783338 C164.247959,291.783338 165.016107,291.291498 165.548774,289.924432 M154.457219,274.331818 C156.676033,272.28122 159.811589,271.041529 163.329959,271.041529 C166.913811,271.041529 170.049367,272.28122 172.289589,274.331818 C174.505885,276.382416 175.850774,279.245182 175.850774,282.51277 C175.850774,285.780358 174.505885,288.664563 172.289589,290.715161 C170.049367,292.765759 166.913811,293.982749 163.329959,293.982749 C159.768774,293.982749 156.655885,292.765759 154.43707,290.715161 C152.218256,288.664563 150.875885,285.780358 150.875885,282.51277 C150.875885,279.245182 152.218256,276.382416 154.457219,274.331818" id="Fill-20" fill="#FFFFFF" transform="translate(163.363330, 282.512139) rotate(-5.000000) translate(-163.363330, -282.512139) "></path>
                    <path d="M188.668168,272.486365 C188.049871,273.747496 187.708612,275.775393 187.708612,278.915607 C187.708612,281.778373 188.028464,283.85041 188.64676,285.151896 C189.266316,286.455905 190.224612,287.117998 191.526686,287.117998 C192.209205,287.117998 193.103279,286.690475 193.59439,286.155756 L193.59439,273.896309 C193.423131,271.908768 192.934538,270.756095 191.249649,270.756095 C190.161649,270.756095 189.266316,271.225235 188.668168,272.486365 L188.668168,272.486365 Z M191.782316,260.994947 L191.782316,260.162601 L202.63839,257.91905 L203.192464,258.516826 L202.829797,263.194358 L202.829797,284.512503 L204.920168,288.613699 L204.920168,289.34011 L194.895205,291.496643 L193.872686,288.100419 C193.083131,288.955465 192.08076,289.83069 190.864316,290.451166 C189.649131,291.069119 188.156908,291.496643 186.38639,291.496643 C183.890538,291.496643 181.842982,290.429726 180.413723,288.57082 C178.985723,286.711914 178.17476,284.127859 178.17476,281.051962 C178.17476,277.399729 179.34839,274.280954 181.480316,272.058842 C183.592094,269.859431 186.620612,268.555423 190.353056,268.555423 C191.569501,268.555423 192.634834,268.705497 193.595649,269.025824 L193.595649,263.536124 L191.782316,260.994947 Z" id="Fill-22" fill="#FFFFFF" transform="translate(191.547464, 274.707846) rotate(-5.000000) translate(-191.547464, -274.707846) "></path>
                    <path d="M219.439839,278.425156 C217.221025,278.788361 216.175839,280.241184 216.175839,281.950015 C216.175839,283.637407 216.986802,284.492454 217.903543,284.492454 C218.691839,284.492454 219.204358,283.936295 219.43858,283.680286 L219.43858,278.425156 L219.439839,278.425156 Z M213.745469,267.404139 C215.793025,266.634849 218.031987,266.165709 220.228136,266.165709 C223.492136,266.165709 225.624062,266.913559 226.924876,268.280624 C228.205543,269.64769 228.673987,271.61253 228.673987,274.026334 L228.673987,282.121529 L230.785765,286.265603 L230.785765,286.949135 L220.739395,289.105668 L219.737025,285.709444 C218.031987,287.738603 215.66458,289.105668 213.104506,289.105668 C211.503987,289.105668 210.097395,288.656706 209.073617,287.845799 C208.049839,287.033631 207.431543,285.880958 207.431543,284.363818 C207.431543,281.992893 208.79658,280.155427 211.014136,278.809801 C213.211543,277.464175 216.197247,276.61039 219.43858,276.247184 L219.43858,273.939316 C219.43858,271.546952 218.329173,270.778923 215.706136,270.778923 C214.852358,270.778923 213.787025,270.949176 212.720432,271.269503 C211.653839,271.58983 210.588506,272.040054 209.756136,272.637829 L208.369691,270.522914 C209.820358,269.305923 211.697913,268.194868 213.745469,267.404139 L213.745469,267.404139 Z" id="Fill-24" fill="#FFFFFF" transform="translate(219.108654, 277.635688) rotate(-5.000000) translate(-219.108654, -277.635688) "></path>
                    <path d="M241.629295,290.473085 C240.585369,292.758253 239.24174,294.552841 237.98248,295.83415 C236.703073,297.116719 235.572258,297.884747 234.953962,298.119318 L231.051517,291.178057 L231.414184,290.473085 C231.734036,290.537403 232.245295,290.60172 232.927814,290.664777 C233.610332,290.729094 234.399888,290.792151 235.230999,290.792151 C236.191814,290.792151 237.194184,290.707655 238.025295,290.450385 C238.857666,290.194375 239.497369,289.789552 239.817221,289.127459 L241.053814,286.520703 L232.822036,269.176379 L230.496184,265.545585 L230.496184,264.6918 L244.616258,264.6918 L244.616258,265.545585 L243.079962,269.156201 L245.874258,276.097461 L248.988406,269.156201 L247.132258,265.545585 L247.132258,264.6918 L254.128703,264.6918 L254.128703,265.545585 L251.504406,269.156201 L241.629295,290.473085 Z" id="Fill-26" fill="#FFFFFF" transform="translate(242.312443, 281.405559) rotate(-5.000000) translate(-242.312443, -281.405559) "></path>
                    <path d="M255.760766,284.017081 C254.88684,283.184735 254.374322,281.987922 254.374322,280.599418 C254.374322,279.253792 254.88684,278.101119 255.760766,277.246073 C256.634692,276.412466 257.851137,275.921886 259.280396,275.921886 C260.709655,275.921886 261.946248,276.412466 262.820174,277.246073 C263.673952,278.101119 264.185211,279.253792 264.185211,280.599418 C264.185211,281.987922 263.673952,283.184735 262.820174,284.017081 C261.946248,284.850688 260.709655,285.341268 259.280396,285.341268 C257.851137,285.341268 256.634692,284.850688 255.760766,284.017081 L255.760766,284.017081 Z M260.645433,272.867429 L257.938026,272.867429 L254.034322,254.327553 L264.484914,254.327553 L260.645433,272.867429 Z" id="Fill-28" fill="#FFFFFF" transform="translate(259.259618, 269.834410) rotate(-5.000000) translate(-259.259618, -269.834410) "></path>
                    <polygon id="Fill-30" fill="#FFFFFF" transform="translate(177.538174, 89.040526) rotate(-5.000000) translate(-177.538174, -89.040526) " points="186.402729 108.077917 168.673618 108.077917 168.673618 107.019829 171.447766 100.748228 171.447766 77.3315619 168.673618 71.0612224 168.673618 70.0031341 186.402729 70.0031341 186.402729 71.0612224 183.653766 77.3315619 183.653766 100.748228 186.402729 107.019829"></polygon>
                    <polygon id="Fill-32" fill="#FFFFFF" transform="translate(173.146061, 38.711307) rotate(-5.000000) translate(-173.146061, -38.711307) " points="173.146691 29.774938 175.361728 36.6026971 182.528173 36.6026971 176.730543 40.8211777 178.944321 47.6476756 173.146691 43.429195 167.347802 47.6476756 169.56158 40.8211777 163.76395 36.6026971 170.931654 36.6026971"></polygon>
                    <polygon id="Fill-34" fill="#FFFFFF" transform="translate(198.765858, 331.546919) rotate(-5.000000) translate(-198.765858, -331.546919) " points="198.766487 322.61055 200.981524 329.437048 208.147969 329.437048 202.350339 333.65679 204.564117 340.483288 198.766487 336.264807 192.967598 340.483288 195.181376 333.65679 189.383747 329.437048 196.55145 329.437048"></polygon>
                    <polygon id="Fill-36" fill="#FFFFFF" transform="translate(215.520819, 41.803147) rotate(-5.000000) translate(-215.520819, -41.803147) " points="217.441189 32.410249 217.646448 39.58608 224.523263 41.6076718 217.772374 44.0202139 217.977634 51.1960449 213.600448 45.5108698 206.84956 47.923412 210.89556 41.9986222 206.518374 36.3134471 213.395189 38.3363"></polygon>
                    <polygon id="Fill-38" fill="#FFFFFF" transform="translate(157.717005, 329.982530) rotate(-5.000000) translate(-157.717005, -329.982530) " points="159.637376 320.589632 159.841376 327.764202 166.71945 329.787055 159.968561 332.199597 160.172561 339.375428 155.795376 333.690253 149.045746 336.102795 153.091746 330.176744 148.714561 324.492831 155.591376 326.514422"></polygon>
                    <polygon id="Fill-40" fill="#FFFFFF" transform="translate(254.031128, 56.636485) rotate(-5.000000) translate(-254.031128, -56.636485) " points="259.191573 47.5487804 257.369425 54.4913023 263.398758 58.3730611 256.242388 58.7816673 254.420239 65.7241892 251.819869 59.0351545 244.663499 59.4437607 250.213054 54.9011696 247.612684 48.2108737 253.642017 52.0926326"></polygon>
                    <polygon id="Fill-42" fill="#FFFFFF" transform="translate(117.487282, 316.809011) rotate(-5.000000) translate(-117.487282, -316.809011) " points="122.646467 307.721307 120.824319 314.663828 126.854912 318.544326 119.698542 318.954194 117.876393 325.896715 115.274764 319.20642 108.119653 319.616287 113.667949 315.072435 111.068838 308.3834 117.098171 312.265159"></polygon>
                    <polygon id="Fill-44" fill="#FFFFFF" transform="translate(286.745589, 80.585717) rotate(-5.000000) translate(-286.745589, -80.585717) " points="294.892996 73.8544341 291.190774 80.0011829 295.884033 85.4265651 288.9027 83.7997071 285.201737 89.947717 284.588478 82.7945863 277.607145 81.1689895 284.2107 78.3743249 283.596182 71.2237165 288.2907 76.6478376"></polygon>
                    <polygon id="Fill-46" fill="#FFFFFF" transform="translate(82.525221, 291.669700) rotate(-5.000000) translate(-82.525221, -291.669700) " points="90.6719984 284.938417 86.9710354 291.085166 91.6642947 296.510548 84.6829613 294.884951 80.9807391 301.0317 80.3674798 293.878569 73.3861465 292.252972 79.9897021 289.458308 79.3764428 282.307699 84.0697021 287.731821"></polygon>
                    <polygon id="Fill-48" fill="#FFFFFF" transform="translate(303.345093, 270.615103) rotate(-5.000000) translate(-303.345093, -270.615103) " points="311.489982 277.348908 304.887685 274.552983 300.193167 279.977104 300.807685 272.825234 294.205389 270.030569 301.186722 268.406234 301.8025 261.253103 305.502204 267.401113 312.484796 265.776777 307.790278 271.200898"></polygon>
                    <polygon id="Fill-50" fill="#FFFFFF" transform="translate(65.620882, 98.134356) rotate(-5.000000) translate(-65.620882, -98.134356) " points="73.7657704 104.868161 67.1634741 102.072235 62.4689556 107.496356 63.0847334 100.344487 56.4811778 97.5485611 63.4637704 95.9242254 64.078289 88.7723559 67.7779927 94.9203657 74.7605853 93.29603 70.0660667 98.7201511"></polygon>
                    <polygon id="Fill-52" fill="#FFFFFF" transform="translate(275.278454, 299.874523) rotate(-5.000000) translate(-275.278454, -299.874523) " points="280.435121 308.962858 274.888084 304.417745 268.857491 308.296982 271.459121 301.607947 265.910825 297.062834 273.065936 297.475223 275.668825 290.786188 277.489713 297.72871 284.646084 298.139839 278.615491 302.020336"></polygon>
                    <polygon id="Fill-54" fill="#FFFFFF" transform="translate(95.694595, 67.315786) rotate(-5.000000) translate(-95.694595, -67.315786) " points="100.851891 76.4041208 95.3035946 71.8590075 89.273002 75.738244 91.8746316 69.0492093 86.3275946 64.504096 93.4827057 64.9164855 96.0855946 58.2274508 97.9052242 65.1699727 105.061595 65.5811012 99.031002 69.4615989"></polygon>
                    <polygon id="Fill-56" fill="#FFFFFF" transform="translate(239.921173, 321.159931) rotate(-5.000000) translate(-239.921173, -321.159931) " points="241.840914 330.552829 237.796173 324.625516 230.918099 326.647108 235.296543 320.963194 231.253062 315.037143 238.002692 317.450947 242.381136 311.767033 242.174617 318.942864 248.924247 321.356667 242.046173 323.376998"></polygon>
                    <polygon id="Fill-58" fill="#FFFFFF" transform="translate(133.030119, 47.366567) rotate(-5.000000) translate(-133.030119, -47.366567) " points="134.948601 56.7594653 130.90386 50.8334143 124.027045 52.853745 128.40549 47.169831 124.360749 41.2437801 131.110379 43.6575833 135.490082 37.9736694 135.283564 45.1495004 142.033193 47.5633037 135.155119 49.5848954"></polygon>
                    <polygon id="Fill-60" fill="#FFFFFF" transform="translate(239.921173, 321.159931) rotate(-5.000000) translate(-239.921173, -321.159931) " points="241.840914 330.552829 237.796173 324.625516 230.918099 326.647108 235.296543 320.963194 231.253062 315.037143 238.002692 317.450947 242.381136 311.767033 242.174617 318.942864 248.924247 321.356667 242.046173 323.376998"></polygon>
                    <polygon id="Fill-62" fill="#FFFFFF" transform="translate(133.030119, 47.366567) rotate(-5.000000) translate(-133.030119, -47.366567) " points="134.948601 56.7594653 130.90386 50.8334143 124.027045 52.853745 128.40549 47.169831 124.360749 41.2437801 131.110379 43.6575833 135.490082 37.9736694 135.283564 45.1495004 142.033193 47.5633037 135.155119 49.5848954"></polygon>
                </g>
                <path d="M185.99937,358 C92.110656,358 16,281.889344 16,188.00063 C16,94.1119163 92.110656,18 185.99937,18 C279.886823,18 356,94.1119163 356,188.00063 C356,281.889344 279.886823,358 185.99937,358 Z" id="Fill-1-Copy-2" stroke="#001E57" stroke-width="6"></path>
            </g>
        </g>
    </g>
</svg>