<?xml version="1.0" encoding="UTF-8"?>
<svg width="401px" height="55px" viewBox="0 0 401 55" version="1.1" xmlns="http://www.w3.org/2000/svg" xmlns:xlink="http://www.w3.org/1999/xlink">
    <!-- Generator: Sketch 61 (89581) - https://sketch.com -->
    <title>Fill 1</title>
    <desc>Created with Sketch.</desc>
    <g id="DESIGN-V-1" stroke="none" stroke-width="1" fill="none" fill-rule="evenodd">
        <g id="FAQs" transform="translate(-558.000000, -2185.000000)" fill="#FD2F6A">
            <path d="M941.349374,2229.95995 C938.313893,2227.70187 933.559812,2228.3523 931.226596,2231.34436 C928.879853,2234.35405 930.162379,2238.57564 933.820862,2239.64215 C936.12324,2240.3132 938.40073,2240.04278 940.486422,2238.81134 C942.142803,2237.83325 943.078525,2236.3341 943.289528,2234.40151 C943.498639,2232.50337 942.887268,2231.10404 941.349374,2229.95995 M700.959895,2218.8605 C700.923646,2223.10624 700.95232,2227.35278 701.003178,2231.59851 C701.022114,2233.13834 701.900215,2234.21436 703.184904,2234.96569 C705.707483,2236.44097 710.228649,2236.12009 712.498564,2234.2903 C712.706322,2234.12322 712.86728,2233.7858 712.885675,2233.51645 C712.937885,2232.75156 712.881076,2231.97988 712.909751,2231.21226 C713.204345,2223.26328 713.518957,2215.31485 713.803001,2207.36532 C713.932038,2203.75023 713.969099,2200.1316 713.461067,2196.53766 C713.188385,2194.61023 712.358436,2192.97844 710.534334,2192.08498 C707.578926,2190.63709 704.605394,2190.80391 701.67271,2192.17937 C701.457648,2192.28027 701.25503,2192.6478 701.243127,2192.9006 C701.196057,2193.91558 701.227978,2194.93382 701.228249,2195.95097 C701.22879,2201.28438 701.228519,2206.61778 701.228519,2212.47875 C701.149528,2214.25457 700.979643,2216.55686 700.959895,2218.8605 M957.349153,2193.67526 C955.418738,2190.12987 952.479561,2187.75896 948.771302,2186.3005 C945.502906,2185.01482 942.078149,2184.84773 938.639597,2185.09917 C931.929401,2185.58957 927.031946,2188.82927 924.271581,2195.05181 C923.816029,2196.07872 923.589335,2197.27001 923.530904,2198.39973 C923.375897,2201.39504 925.790539,2203.7193 928.776515,2203.60213 C930.76401,2203.52455 932.479905,2202.7187 934.041334,2201.56348 C935.030347,2200.83195 935.939829,2199.99381 936.907741,2199.23244 C938.735901,2197.79405 940.770737,2197.27598 943.02415,2198.00969 C944.41353,2198.46212 945.210205,2199.72935 944.889642,2201.14442 C944.710288,2201.93563 944.347253,2202.75315 943.850041,2203.38812 C943.113421,2204.32905 942.220171,2205.15851 941.329085,2205.96382 C939.871265,2207.28097 938.305778,2208.48175 936.885289,2209.8366 C934.141967,2212.45326 932.458805,2215.62514 931.995949,2219.44828 C931.778452,2221.24498 932.393069,2222.58735 933.756208,2223.6319 C935.304382,2224.81885 937.104408,2225.37191 939.034282,2225.38849 C941.421332,2225.40826 942.785013,2224.44318 943.669336,2222.25183 C943.87547,2221.74135 944.102435,2221.23522 944.256359,2220.70847 C944.770343,2218.953 945.784244,2217.55529 947.230433,2216.46843 C949.03127,2215.11521 950.871874,2213.81299 952.651881,2212.43291 C956.207568,2209.67629 958.466933,2206.15152 958.897327,2201.46068 C959.247648,2198.77079 958.694168,2196.14626 957.349153,2193.67526 M569.710307,2199.22078 C569.562064,2198.00182 569.276397,2196.77744 568.873866,2195.61816 C568.409387,2194.28175 567.424972,2193.29986 565.990957,2193.09426 C563.891198,2192.79319 561.81362,2192.99933 559.932169,2194.09406 C558.598516,2194.87008 557.961987,2196.07004 558.001753,2197.64243 C558.125109,2202.51554 558.336654,2207.38241 558.922325,2212.22568 C559.484462,2216.87014 560.326584,2221.45953 561.694322,2225.93907 C562.742038,2229.37135 565.009789,2231.49029 568.556819,2232.15727 C569.250698,2232.28773 569.960266,2232.37317 570.666047,2232.39976 C573.760501,2232.51666 576.812483,2232.10871 579.840119,2231.5269 C580.967097,2231.31018 582.098673,2231.02131 583.164243,2230.60143 C585.097093,2229.84033 586.165909,2228.31243 586.282502,2226.25859 C586.356624,2224.95501 586.265189,2223.61454 586.039307,2222.3275 C585.715226,2220.48144 584.641541,2219.50551 582.783624,2219.31592 C581.442126,2219.17894 580.07547,2219.17623 578.726938,2219.24838 C576.929618,2219.34467 575.141224,2219.60181 573.344715,2219.73064 C572.30782,2219.80496 572.295647,2219.75451 572.056238,2218.74767 C571.925037,2218.19542 571.794377,2217.63911 571.721067,2217.0771 C571.308256,2213.91633 570.912759,2210.75285 570.636831,2208.58184 C570.271361,2204.79667 570.048725,2202.00154 569.710307,2199.22078 M823.593488,2205.18997 C823.880508,2204.31739 824.460498,2203.66723 825.372684,2203.49906 C826.473422,2203.29617 827.596341,2203.11118 828.710063,2203.10793 C831.21046,2203.1006 833.711398,2203.21425 836.212065,2203.27121 C837.575204,2203.30214 838.913727,2203.16136 840.186513,2202.62729 C841.000772,2202.28553 841.662188,2201.77288 842.064178,2200.95699 C843.62696,2197.78564 842.289249,2193.61233 839.090375,2192.1536 C837.801898,2191.56582 836.35571,2191.19965 834.945771,2191.02876 C830.880158,2190.53701 826.798043,2190.7879 822.728913,2191.08817 C821.432051,2191.18391 820.131401,2191.40389 818.864566,2191.7028 C815.034844,2192.60684 812.594232,2194.92514 811.870867,2198.88579 C811.721,2199.70657 811.578708,2200.53928 811.553279,2201.37036 C811.453458,2204.64424 811.390698,2207.9192 811.33416,2211.19416 C811.235421,2216.93225 811.145609,2222.67062 811.065265,2228.40899 C811.044976,2229.86013 811.134518,2231.30666 811.689079,2232.67344 C812.226869,2233.99872 813.037611,2235.10294 814.460535,2235.54723 C816.257314,2236.10816 818.082498,2236.20147 819.927971,2235.7249 C821.204816,2235.39561 822.093196,2234.65512 822.33017,2233.34964 C822.586891,2231.93404 822.792756,2230.49836 822.867418,2229.0635 C822.985635,2226.78643 822.985094,2224.50285 823.015662,2222.22172 C823.022966,2221.68412 823.226937,2221.38277 823.771489,2221.31198 C824.507298,2221.21677 825.237155,2221.05755 825.975669,2221.00141 C828.08679,2220.84165 830.205216,2220.76624 832.31255,2220.57013 C834.292741,2220.38569 835.333423,2219.61835 835.634239,2218.03539 C835.824683,2217.0337 835.834963,2215.97016 835.748938,2214.94948 C835.623688,2213.47014 834.747211,2212.52676 833.303457,2212.14024 C832.977212,2212.0529 832.654214,2211.91511 832.32337,2211.89179 C830.55202,2211.76702 828.779316,2211.64469 827.004989,2211.57444 C825.794692,2211.5267 824.580879,2211.56521 823.277253,2211.56521 C823.179326,2209.41807 822.90502,2207.28395 823.593488,2205.18997 M609.023857,2219.57278 C608.685439,2220.511 608.214197,2221.45384 607.595523,2222.22714 C606.175845,2224.00133 603.882665,2223.97122 602.38616,2222.25861 C601.342232,2221.06298 600.859358,2219.60913 600.6048,2218.07879 C600.008308,2214.49082 599.85222,2210.89715 600.658363,2207.31731 C600.989206,2205.84719 601.571361,2204.48583 602.612043,2203.35855 C604.129107,2201.71565 606.563227,2201.75172 608.009145,2203.45756 C609.14532,2204.7983 609.608176,2206.42629 609.838387,2208.11747 C610.011789,2209.38878 610.062646,2210.67663 610.11702,2211.33547 C609.998263,2214.53828 609.907639,2217.12239 609.023857,2219.57278 M588.112826,2220.52592 C588.519685,2223.94247 589.609872,2227.16156 591.650929,2229.94015 C594.468373,2233.77522 598.387365,2235.64759 603.098975,2235.99098 C609.088511,2236.42768 613.907516,2234.29383 617.506486,2229.47687 C619.913554,2226.2548 621.129261,2222.54802 621.750911,2218.60934 C622.305202,2215.09785 622.202406,2211.5842 621.856143,2208.06865 C621.589412,2205.36031 621.093823,2202.69835 619.974691,2200.19589 C618.252304,2196.34454 615.637478,2193.37473 611.526418,2192.04375 C610.168689,2191.60407 608.721148,2191.38029 607.296871,2191.22053 C598.338943,2190.21559 590.887528,2195.37133 588.598406,2204.09307 C587.799296,2207.13667 587.66539,2210.24509 587.507407,2213.3771 C587.703803,2215.76049 587.830406,2218.15257 588.112826,2220.52592 M777.616001,2223.4263 C773.768426,2225.70526 768.576106,2224.12447 766.91188,2219.97883 C765.03151,2215.29559 765.383995,2210.60475 767.830829,2206.19817 C769.486669,2203.21642 772.145048,2201.87514 775.595504,2202.30017 C777.194805,2202.49709 778.62882,2203.14672 779.763913,2204.23846 C781.697575,2206.09836 783.973442,2206.45775 786.464641,2206.06879 C788.712374,2205.71781 790.29328,2204.55988 789.816087,2201.60064 C789.300209,2198.40163 787.567813,2196.02963 785.019534,2194.19821 C777.07172,2188.48561 765.272812,2190.29777 758.998421,2198.17108 C755.928043,2202.02351 754.2392,2206.44012 753.749292,2211.3192 C753.243694,2216.35532 753.858852,2221.25203 755.938323,2225.88998 C757.942319,2230.3584 761.115764,2233.72395 765.756769,2235.45311 C769.357903,2236.79521 773.094836,2236.73554 776.827442,2236.02435 C787.037327,2234.07955 792.783127,2224.91568 790.023303,2214.95193 C789.470635,2212.95586 788.279275,2211.45075 786.15598,2211.00944 C783.138353,2210.3826 780.092593,2210.40349 777.100935,2211.13096 C774.457705,2211.7738 773.425139,2213.29844 773.526042,2216.0198 C773.611526,2218.32616 774.583226,2219.30019 776.877217,2219.34819 C777.887331,2219.36935 778.898256,2219.35172 779.999534,2219.35172 C779.998452,2221.32635 779.080856,2222.5586 777.616001,2223.4263 M678.048384,2206.64491 C677.891754,2204.49505 677.76921,2202.34005 677.009055,2200.28621 C675.687034,2196.71424 673.051378,2195.62738 669.545196,2195.79419 C668.65925,2195.83624 668.137151,2196.38414 668.028944,2197.25157 C667.918031,2198.1388 667.80225,2199.03091 667.782231,2199.92302 C667.675377,2204.65373 667.572309,2209.38525 667.518747,2214.11678 C667.479251,2217.62555 667.519017,2221.13893 668.025156,2224.6184 C668.244817,2226.12786 668.611639,2227.62565 669.045009,2229.08899 C669.205696,2229.6331 669.659896,2230.19321 670.135466,2230.51735 C670.908877,2231.04437 671.852984,2231.20494 672.802502,2231.17809 C673.774202,2231.15069 674.594142,2230.77068 675.134636,2229.95995 C675.556644,2229.32741 675.998941,2228.66233 676.21265,2227.94598 C676.664685,2226.42921 676.979568,2224.87066 677.338816,2223.32648 C677.49247,2222.66547 677.617449,2221.9974 677.755413,2221.33259 C677.984001,2221.48123 678.080576,2221.62824 678.159567,2221.78421 C678.570484,2222.59902 678.972203,2223.4187 679.386907,2224.23161 C680.277993,2225.97895 681.298115,2227.64138 682.675592,2229.05319 C685.012867,2231.44879 688.792272,2232.33873 691.578876,2231.16534 C693.102433,2230.52386 693.857719,2229.28076 693.501447,2227.66308 C693.306133,2226.77585 692.917669,2225.89079 692.438312,2225.11532 C691.268592,2223.2226 689.683899,2221.67951 688.055381,2220.17792 C687.350141,2219.52749 686.750403,2218.76069 686.115768,2218.03485 C685.871761,2217.75574 685.961843,2217.56072 686.270504,2217.3383 C687.542209,2216.42205 688.824734,2215.51448 690.036384,2214.52174 C693.089989,2212.0209 695.616897,2209.07278 697.396363,2205.51844 C698.378343,2203.5571 698.916674,2201.49242 698.797646,2199.28343 C698.665633,2196.84037 697.036033,2195.28589 694.591634,2195.34963 C692.310627,2195.4093 690.327461,2196.24744 688.926178,2198.08455 C688.047536,2199.23624 687.360691,2200.53819 686.622989,2201.79377 C685.459492,2203.77464 684.360107,2205.79375 683.166853,2207.75591 C682.458637,2208.92035 681.504521,2209.88488 680.289625,2210.54779 C679.692592,2210.87328 679.062826,2211.08539 678.32296,2211.03657 C678.229361,2209.52114 678.152804,2208.08194 678.048384,2206.64491 M898.257231,2206.1819 C898.257231,2204.13051 898.276167,2202.07884 898.244246,2200.02799 C898.23586,2199.50043 898.399523,2199.16192 898.850206,2198.92485 C900.653749,2197.97578 903.817455,2197.69017 905.847692,2199.89156 C907.568456,2201.75742 907.01146,2205.5179 904.807821,2207.03495 C903.644594,2207.83538 902.230868,2208.23601 900.428407,2208.27561 C898.294833,2208.32253 898.257231,2208.28646 898.257231,2206.1819 M911.060841,2217.33152 C914.64899,2216.35532 917.181849,2214.10131 918.864741,2210.83124 C920.721576,2207.22265 920.740241,2203.40901 919.999834,2199.54762 C919.041389,2194.54893 916.177957,2191.03717 911.444706,2189.21118 C905.870686,2187.06051 900.129215,2186.92408 894.366913,2188.32639 C890.689223,2189.22149 888.001628,2191.43915 886.169411,2194.80796 C884.738371,2197.43981 884.241971,2200.26994 884.18408,2203.15838 C884.071274,2208.78418 884.101031,2214.4146 884.17867,2220.04176 C884.240077,2224.50312 884.444318,2228.96314 884.616638,2233.42233 C884.724304,2236.19279 885.963276,2237.95287 888.281344,2238.593 C890.51014,2239.20817 892.738125,2239.12951 894.912278,2238.30114 C896.369828,2237.74591 897.416732,2236.74096 897.81818,2235.21523 C898.100331,2234.14465 898.351101,2233.03419 898.381128,2231.93485 C898.458767,2229.08411 898.407368,2226.22957 898.407368,2223.37639 C898.447675,2223.31699 898.488524,2223.25732 898.528831,2223.19764 C898.681673,2223.42304 898.821531,2223.65875 898.989523,2223.87195 C899.835162,2224.94633 900.688916,2226.01394 901.538342,2227.08507 C903.189583,2229.16765 904.754529,2231.32781 906.52047,2233.30787 C907.724004,2234.65729 909.125016,2235.86947 910.585812,2236.93978 C912.986929,2238.69905 915.683992,2238.9193 918.450037,2237.88234 C920.373149,2237.16139 921.196875,2235.76802 920.838439,2233.76084 C920.653676,2232.72769 920.350425,2231.66117 919.845098,2230.75278 C919.061407,2229.34396 918.125686,2228.00539 917.136402,2226.72893 C914.887046,2223.82719 912.565191,2220.98215 910.276069,2218.11134 C910.18761,2218.00013 910.1354,2217.85963 910.013937,2217.63639 C910.40213,2217.52302 910.729998,2217.42157 911.060841,2217.33152 M640.295993,2206.57601 C641.575272,2203.76406 643.771336,2202.57168 646.800325,2203.05232 C648.60008,2203.33794 649.901541,2204.31631 650.71553,2205.94673 C651.455937,2207.42988 651.738628,2209.02857 651.834392,2210.66171 C651.998055,2213.44844 651.970462,2216.22947 650.992269,2218.8917 C650.692536,2219.70786 650.264576,2220.50205 649.764118,2221.21352 C648.465633,2223.0604 646.61502,2223.68289 644.430859,2223.38751 C642.979801,2223.19113 641.999715,2222.27 641.191948,2221.13811 C639.861541,2219.27415 639.393545,2217.12294 639.208241,2214.89225 C639.157654,2214.28684 639.200396,2213.67357 639.200396,2213.06382 C639.198773,2210.84263 639.357296,2208.63907 640.295993,2206.57601 M663.568645,2206.32023 C661.474296,2193.83963 649.16925,2187.68925 637.739329,2192.3668 C632.622754,2194.46077 629.447145,2198.51094 627.730438,2203.66397 C625.363407,2210.76966 625.652049,2217.91794 628.067503,2224.94281 C629.527218,2229.18854 632.339522,2232.38701 636.466813,2234.31363 C639.568841,2235.76178 642.866724,2236.13745 646.231696,2236.00509 C652.821782,2235.74605 657.796876,2232.72986 661.044713,2226.97928 C663.44069,2222.73735 664.154316,2218.06957 664.222757,2212.25688 C664.082088,2210.93892 663.95251,2208.60815 663.568645,2206.32023 M866.858763,2219.7716 C866.250639,2221.09716 865.390392,2222.21846 864.077028,2222.89874 C861.681592,2224.13912 859.064062,2223.45505 857.451505,2221.19643 C856.179259,2219.41438 855.628214,2217.376 855.452919,2215.23103 C855.207829,2212.23192 855.296559,2209.25641 856.578002,2206.45829 C857.818056,2203.75104 859.953254,2202.61834 862.880528,2203.03252 C865.476146,2203.39978 866.910162,2205.06167 867.484201,2207.46378 C867.890518,2209.16283 868.02199,2210.92807 868.275736,2212.66401 C868.217033,2212.67323 868.158331,2212.68245 868.10017,2212.69168 C868.085021,2215.12172 867.891059,2217.52112 866.858763,2219.7716 M879.964001,2207.45999 C879.891773,2206.7431 879.77004,2206.02702 879.612869,2205.32396 C876.972344,2193.51577 865.169109,2187.87478 854.082746,2192.30902 C848.833887,2194.40842 845.606339,2198.55624 843.883951,2203.84787 C841.579139,2210.92888 841.891587,2218.02834 844.310017,2225.00818 C845.749172,2229.16033 848.49547,2232.29343 852.499945,2234.22738 C855.519736,2235.68584 858.742957,2236.09541 862.043275,2236.01594 C869.149779,2235.84506 874.367798,2232.57064 877.643229,2226.26049 C879.741095,2222.21928 880.362745,2217.8325 880.41766,2212.45787 C880.320273,2211.36911 880.160127,2209.41265 879.964001,2207.45999 M729.140823,2212.56582 C729.140823,2213.09311 729.163817,2213.62176 729.137036,2214.14797 C728.943345,2217.9353 728.74749,2221.72291 728.532428,2225.50916 C728.494826,2226.17288 728.395546,2226.83715 728.268944,2227.49057 C727.933502,2229.22407 725.637887,2230.9912 723.87871,2230.88461 C722.751191,2230.81625 721.915561,2230.2358 721.276328,2229.33419 C720.271354,2227.91642 719.815261,2226.28572 719.494968,2224.61216 C718.904968,2221.53114 718.734271,2218.40943 718.663125,2215.2804 C718.542745,2209.99202 718.730214,2204.71828 719.496591,2199.47818 C719.61129,2198.69376 719.791726,2197.89278 720.101469,2197.16803 C721.349638,2194.24297 723.910901,2193.06795 726.955039,2193.9625 C729.094835,2194.59124 730.741477,2195.94636 731.964218,2197.74035 C733.421227,2199.87718 734.738649,2202.11193 736.067163,2204.33394 C737.533099,2206.78568 738.941685,2209.27187 740.379758,2211.74044 C740.539905,2212.01547 740.729538,2212.27288 741.030083,2212.50913 C741.030083,2212.27559 741.045773,2212.0407 741.027649,2211.80825 C740.748204,2208.20725 740.748204,2204.60626 741.134774,2201.01503 C741.329547,2199.20532 741.776983,2197.4569 742.755446,2195.87801 C743.651672,2194.43202 744.937173,2193.73982 746.614654,2193.78701 C747.963727,2193.82499 748.969783,2194.44857 749.566275,2195.68109 C750.341579,2197.28412 750.438424,2199.03009 750.538786,2200.75627 C750.800377,2205.251 750.841766,2209.7517 750.539057,2214.24534 C750.233642,2218.78537 749.601712,2223.27034 747.846051,2227.51986 C746.68066,2230.34104 743.08115,2231.49842 740.605641,2229.72749 C739.49246,2228.9314 738.502635,2227.90692 737.625075,2226.84637 C735.684921,2224.50177 734.324486,2221.77743 732.880192,2219.11547 C731.799473,2217.12375 730.755274,2215.11196 729.691327,2213.11101 C729.585554,2212.91247 729.458411,2212.72558 729.341277,2212.53327 C729.274459,2212.54412 729.207641,2212.55497 729.140823,2212.56582" id="Fill-1"></path>
        </g>
    </g>
</svg>