<?xml version="1.0" encoding="UTF-8"?>
<svg width="135px" height="77px" viewBox="0 0 135 77" version="1.1" xmlns="http://www.w3.org/2000/svg" xmlns:xlink="http://www.w3.org/1999/xlink">
    <!-- Generator: Sketch 61.2 (89653) - https://sketch.com -->
    <title>Group 15</title>
    <desc>Created with Sketch.</desc>
    <g id="Revised-Homepage" stroke="none" stroke-width="1" fill="none" fill-rule="evenodd">
        <g id="Home-V4-Copy" transform="translate(-238.000000, -3843.000000)" fill="#B8BECA">
            <g id="Group-2" transform="translate(-13.000000, 3461.000000)">
                <g id="Group-15" transform="translate(251.463759, 382.000000)">
                    <path d="M5.98144531,67 L5.98144531,66.3334961 L3.96484375,61.9073974 L3.96484375,48.5773192 L11.8776122,65.8722411 L13.9625731,65.3595458 L22.3024169,48.1329833 L22.3024169,62.2662841 L20.5079836,66.3164062 L20.5079836,67 L31.9921878,67 L31.9921878,66.3164062 L30.198096,62.2661133 L30.198096,47.1416016 L31.9921878,43.0913086 L31.9921878,42.4077148 L22.6271242,42.4077148 L16.1329836,55.9086914 L10.0144776,42.4077148 L0.0170898437,42.4077148 L0.0170898437,43.0913086 L1.81152344,47.1416016 L1.81152344,61.9073974 L-1.42108547e-14,66.3334961 L-1.42108547e-14,67 L5.98144531,67 Z M35.5044192,76.2288575 C36.0000247,76.0408692 36.9057864,75.4256348 37.9310062,74.400415 C38.939307,73.3750244 40.0159671,71.9393067 40.8533695,70.1108642 L48.7657961,53.0550294 L50.8678468,50.1668458 L50.8678468,49.483252 L45.2623781,49.483252 L45.2623781,50.1668458 L46.7495364,53.0550294 L44.2544192,58.6092286 L42.0156497,53.0550294 L43.2462892,50.1668458 L43.2462892,49.483252 L31.9328126,49.483252 L31.9328126,50.1668458 L33.7954348,53.0721192 L40.3919437,66.9489015 L39.4007328,69.0338625 C39.1445559,69.5634768 38.6318606,69.8881839 37.9653567,70.093262 C37.2988528,70.2983401 36.4956301,70.3666995 35.7262453,70.3666995 C35.0597414,70.3666995 34.4274172,70.3156008 33.880713,70.2643312 C33.333838,70.2132325 32.9238525,70.161963 32.6673341,70.1108642 L32.3771486,70.6746583 L35.5044192,76.2288575 Z M72.6398195,67 L80.4840578,47.1417724 L80.5011476,47.1417724 L83.6456789,43.0914794 L83.6456789,42.4078856 L75.8185304,42.4078856 L75.8185304,43.0914794 L78.1596682,47.1417724 L73.7335695,58.7115966 L69.5978273,47.1417724 L69.632007,47.1417724 L71.8706057,43.0914794 L71.8706057,42.4078856 L57.9770754,42.4078856 L57.9770754,43.0914794 L61.0529054,47.0219727 L68.8458742,67 L72.6398195,67 Z M90.284839,67.4101565 C93.1559328,67.4101565 95.6681398,66.4362062 97.4625734,64.795752 C99.2399172,63.1549562 100.316577,60.8478273 100.316577,58.233252 C100.316577,55.6185059 99.2399172,53.3284669 97.4625734,51.6875 C95.6681398,50.0470458 93.1559328,49.0558349 90.284839,49.0558349 C87.4651856,49.0558349 84.9529786,50.0470458 83.1756348,51.6875 C81.3812012,53.3284669 80.3045411,55.6185059 80.3045411,58.233252 C80.3045411,60.8478273 81.3812012,63.1549562 83.158545,64.795752 C84.9358887,66.4362062 87.4310059,67.4101565 90.284839,67.4101565 Z M90.3191895,65.6500734 C89.6355958,65.6500734 89.0203614,65.257007 88.6102052,64.163257 C88.1829591,63.069507 87.9267822,61.2579836 87.9267822,58.4039797 C87.9267822,55.5499758 88.16604,53.6700929 88.5760255,52.4738039 C88.9861817,51.2775148 89.5843262,50.8157472 90.2850098,50.8157472 C91.0198731,50.8157472 91.6180177,51.2775148 92.0452637,52.4738039 C92.472339,53.6700929 92.7290286,55.5499758 92.7290286,58.4039797 C92.7290286,61.2579836 92.472339,63.069507 92.0621828,64.163257 C91.6351075,65.257007 91.0198731,65.6500734 90.3191895,65.6500734 Z M108.664722,67.4101565 C110.237329,67.4101565 111.672705,66.9832523 112.886084,66.3509281 C114.099463,65.7186038 115.073584,64.8470218 115.740088,63.9583499 L114.851416,62.4373538 C114.680518,62.5569828 114.509619,62.6937015 114.35564,62.8302495 C114.030933,63.1040288 113.637867,63.3431158 113.159351,63.4800054 C112.903174,63.5654546 112.612647,63.5996343 112.270679,63.5996343 C111.604175,63.5996343 111.07439,63.4627447 110.698414,63.1211187 C110.322437,62.779151 110.100269,62.1980963 110.100269,61.3094244 L110.100269,51.2435059 L115.056323,51.2435059 L115.056323,49.483252 L109.96355,49.483252 L109.96355,44.5612062 L108.92124,44.5612062 L103.195972,48.628589 L100.632495,50.1324953 L100.632495,51.2433351 L102.717456,51.2433351 L102.717456,62.2833742 C102.717456,64.0436281 103.41814,65.3253664 104.51189,66.1627687 C105.60564,67.0000003 107.092456,67.4101565 108.664722,67.4101565 Z M125.591626,67.41084 C127.693677,67.41084 129.283032,66.9666749 130.615869,66.1634522 C131.948877,65.3602295 133.025537,64.2321291 134.068018,62.9163819 L134.068701,62.9158692 L132.820801,61.4974122 C132.649902,61.6683106 132.461914,61.8733887 132.239746,62.1128174 C131.795239,62.591333 131.180176,63.0527588 130.376953,63.3774658 C129.983887,63.5311036 129.52229,63.6168947 129.026685,63.6168947 C127.932935,63.6168947 126.788086,63.1041994 125.882324,62.1468262 C124.976563,61.1899658 124.292969,59.7715088 124.10498,57.994165 L124.10498,57.9259764 L134.529785,57.9259764 C134.529785,55.4137694 133.777832,53.2091796 132.359546,51.6198241 C130.923828,50.0304686 128.873047,49.0563475 126.224121,49.0563475 C123.353027,49.0563475 120.977539,50.0304686 119.302734,51.6880127 C117.62793,53.3460694 116.653809,55.7044678 116.653809,58.4559327 C116.653809,61.0535889 117.525391,63.2923585 119.063306,64.8817139 C120.601563,66.4710694 122.840161,67.41084 125.591626,67.41084 Z M124.087549,56.5247803 C124.070459,54.4569092 124.275537,53.0384522 124.617334,52.1326905 C124.94187,51.2440186 125.386377,50.868042 125.847803,50.868042 C126.3094,50.868042 126.685376,50.9705811 126.958814,51.6880127 C127.095703,52.0472413 127.198242,52.5770264 127.283691,53.27771 C127.35188,53.9780517 127.38606,54.935083 127.38606,56.131372 L124.087549,56.5247803 Z" id="MyVote" fill-rule="nonzero"></path>
                    <g id="Group-12" transform="translate(50.536241, 0.000000)">
                        <g id="Group-6">
                            <polygon id="Fill-1" points="11.55 9.1 8.925 11.55 17.5 19.95 35 2.45 32.55 0 17.5 15.05"></polygon>
                            <path d="M27.825,14.175 C28,14.7 28,15.225 28,15.75 C28,22.575 22.575,28 15.75,28 C8.925,28 3.5,22.575 3.5,15.75 C3.5,8.925 8.925,3.5 15.75,3.5 C17.85,3.5 19.95,4.025 21.875,5.075 L23.625,2.1 C21.175,0.7 18.55,0 15.75,0 C7,0 0,7 0,15.75 C0,24.5 7,31.5 15.75,31.5 C24.5,31.5 31.5,24.5 31.5,15.75 C31.5,15.05 31.5,14.525 31.325,13.825 L27.825,14.175 Z" id="Fill-2"></path>
                        </g>
                    </g>
                </g>
            </g>
        </g>
    </g>
</svg>