<?xml version="1.0" encoding="UTF-8"?>
<svg width="639px" height="162px" viewBox="0 0 639 162" version="1.1" xmlns="http://www.w3.org/2000/svg" xmlns:xlink="http://www.w3.org/1999/xlink">
    <!-- Generator: Sketch 61 (89581) - https://sketch.com -->
    <title>Group 28</title>
    <desc>Created with Sketch.</desc>
    <defs>
        <polygon id="path-1" points="0 0.103225833 48.0102022 0.103225833 48.0102022 54.6437072 0 54.6437072"></polygon>
    </defs>
    <g id="DESIGN-V-1" stroke="none" stroke-width="1" fill="none" fill-rule="evenodd">
        <g id="404-Page" transform="translate(-431.000000, -623.000000)">
            <g id="Group-28" transform="translate(431.000000, 623.000000)">
                <path d="M355.183935,48.7833917 C355.2113,44.2396998 354.882922,39.7506571 353.276213,35.4392243 C351.644094,31.0575283 348.680871,28.1786857 343.981933,27.3511404 C337.017575,26.1234848 331.904255,28.77202 329.017261,35.2284345 C326.237773,41.442831 326.052083,48.0339168 326.638473,54.6737965 C327.056764,59.3931466 328.33314,63.8470576 331.116537,67.7857047 C333.954665,71.7985185 337.770109,73.4106704 342.631281,72.6533884 C347.449452,71.9039134 350.350127,68.8181845 352.332125,64.6882652 C354.742188,59.6644409 355.158525,54.2522168 355.183935,48.7833917 M297.000184,51.0649965 C296.980825,41.7902439 298.489801,32.8316761 302.316973,24.3415301 C309.599936,8.18878335 324.92426,-0.966912018 342.838472,0.0811818664 C363.321073,1.28151285 378.502708,15.0843433 381.739581,35.4860665 C383.623847,47.3664156 383.641439,59.1921155 380.091825,70.8011703 C376.186468,83.5851833 368.577081,93.2659014 355.840692,98.2487388 C347.654688,101.451573 339.091441,101.55892 330.557512,100.09315 C313.886446,97.2318731 303.032369,86.3547274 299.16415,68.8943031 C298.528894,66.0232675 298.048054,63.103438 297.698175,60.1816567 C297.336568,57.158384 297.223199,54.105835 297.000184,51.0649965" id="Fill-1" fill="#FD2F6A"></path>
                <path d="M265.143255,64.6376451 C262.331681,64.6376451 259.726301,64.7293404 257.13441,64.6142335 C253.648366,64.4601074 251.353242,62.442811 250.884967,59.3388279 C249.709463,51.562287 252.937282,47.0223947 260.666704,45.8401108 C266.197355,44.9953436 271.751131,44.9134031 277.316469,45.7191511 C282.881807,46.52685 286.132751,49.9078699 287.541429,55.1520601 C293.338014,76.7043549 281.41339,96.5144393 259.653073,101.512808 C250.987101,103.502791 242.261391,103.733005 233.799687,100.734374 C223.780923,97.1816689 216.419568,90.2030721 212.187753,80.4658128 C203.001476,59.3388279 203.596937,38.5766733 216.989977,19.3752896 C230.277029,0.326080984 256.070675,-4.54547512 275.071449,7.74559555 C281.293913,11.7684825 285.645206,17.205818 286.920917,24.7872626 C287.038467,25.4857076 287.098206,26.1997602 287.130966,26.909911 C287.308255,30.6538101 285.909212,33.1764061 282.34994,34.2689457 C276.339452,36.1087044 270.465784,36.1789391 265.368721,31.5688121 C262.782612,29.2296067 259.849632,27.4620337 256.394421,26.8357744 C248.846142,25.4661979 242.604407,27.8775889 238.580714,34.4581892 C232.522049,44.3671333 231.704977,55.1188937 235.89247,65.8862618 C239.563512,75.3269746 251.148974,78.8757774 259.836143,73.7583999 C262.366368,72.2698147 264.21056,70.1959404 264.881176,67.2343776 C265.043049,66.5125211 265.03534,65.7535963 265.143255,64.6376451" id="Fill-3" fill="#FD2F6A"></path>
                <path d="M253.858268,122.425355 C257.262462,121.803444 343.626676,121.183448 347.032807,120.559624 C347.962809,120.389316 348.886998,120.165428 349.824749,120.0487 C351.680878,119.815245 352.798817,120.412279 353.686194,122.031159 C354.901008,124.254728 355.121884,126.661999 354.947508,129.11711 C354.57357,134.352638 351.77969,137.62867 346.414743,139.280082 C340.981984,140.952542 252.441953,141.207047 246.829006,140.872172 C244.006063,140.703778 241.196683,140.213904 238.395053,139.771869 C236.438175,139.463784 234.709922,138.554838 233.138607,137.376079 C230.97054,135.751458 230.402852,133.18536 231.656417,130.806792 C232.518606,129.172603 233.932983,128.122053 235.498486,127.232243 C237.65299,126.005645 239.977994,125.190464 242.397936,124.708244 C246.218692,123.946643 250.056886,123.292202 253.889268,122.591835 C253.879581,122.538255 253.867956,122.480848 253.858268,122.425355" id="Fill-5" fill="#FD2F6A"></path>
                <path d="M263.193027,149.617327 C265.308808,149.20198 318.938342,148.788688 321.052185,148.373341 C321.632037,148.260251 322.206071,148.112207 322.785923,148.032016 C323.939809,147.877803 324.63602,148.274644 325.184843,149.354137 C325.939233,150.83664 326.076923,152.442513 325.966383,154.077173 C325.735606,157.568559 323.999928,159.752218 320.670141,160.852272 C317.293812,161.968775 262.314522,162.137382 258.829591,161.915315 C257.07646,161.802225 255.331085,161.475293 253.591529,161.18126 C252.375585,160.975642 251.303149,160.36907 250.32574,159.583611 C248.981802,158.5 248.628848,156.791325 249.408449,155.206013 C249.943697,154.11624 250.820263,153.415084 251.793794,152.820849 C253.131914,152.004547 254.574757,151.461717 256.077718,151.138897 C258.449487,150.633078 260.834832,150.195113 263.214359,149.728361 C263.206602,149.69135 263.200784,149.654338 263.193027,149.617327" id="Fill-7" fill="#FD2F6A"></path>
                <path d="M159.493705,50.2586585 C159.921125,48.269015 160.35048,46.2793714 160.772099,44.2878129 C162.094976,38.0546177 163.346294,31.8041878 164.771675,25.5939722 C165.177821,23.8111443 165.941763,22.0742755 166.767594,20.4274098 C168.76158,16.4557825 173.374244,14.8414711 177.497597,16.5955746 C180.543696,17.8920026 181.934264,20.4082602 181.990351,23.5181554 C182.046438,26.6778396 181.853035,29.8585884 181.539722,33.0086978 C180.32515,45.3084866 176.576999,56.9686788 172.150002,68.437375 C170.98765,71.4457773 169.395942,74.2377892 167.026755,76.5223366 C163.191572,80.2162947 158.34489,80.2699136 154.428478,76.644894 C150.840851,73.3262682 148.928094,69.0731417 147.574273,64.5193666 C147.115907,62.9778237 146.744574,61.4075564 146.259132,59.5615348 C145.816239,60.4577361 145.491322,61.1241423 145.156734,61.7867185 C143.559225,64.9425727 142.056483,68.1539609 140.329393,71.2389616 C138.797641,73.9735247 136.735964,76.3193508 134.123089,78.1443078 C129.937846,81.064622 124.209247,80.4863041 120.733793,76.7751113 C118.703061,74.6073765 117.308625,72.085374 116.324203,69.3029369 C113.336126,60.8598778 111.378886,52.1678738 109.924495,43.3571423 C108.750538,36.2411504 108.046551,29.0791996 108,21.8636299 C107.996266,21.13786 108.077496,20.4082602 108.027211,19.6863202 C107.899565,17.8939175 108.854976,16.9383524 110.404135,16.2298172 C117.414996,13.0260889 125.197536,16.2815211 127.431342,23.6732672 C128.427368,26.9669986 128.874129,30.4483961 129.307352,33.8761747 C129.978461,39.2150835 130.409749,44.5846317 130.984157,49.9369452 C131.106001,51.0801764 131.330348,52.2253226 131.645595,53.3321695 C131.920227,54.3030543 132.595204,54.4256118 133.252775,53.6596277 C133.676327,53.163653 134.022519,52.5757603 134.293283,51.9802077 C135.285441,49.7799185 136.19637,47.54516 137.205934,45.3506157 C138.455318,42.6313724 139.913577,40.0385164 142.334983,38.1235562 C145.083241,35.9481615 148.624452,35.9558214 151.359171,38.1407909 C153.534956,39.8795747 155.060906,42.1143331 156.32963,44.5329278 C157.161263,46.1146848 157.919404,47.7366561 158.712356,49.3375627 C158.869013,49.6497012 159.043075,49.9522649 159.209402,50.2605735 C159.302236,50.2586585 159.398937,50.2586585 159.493705,50.2586585" id="Fill-9" fill="#5400FF"></path>
                <g id="Group-13" transform="translate(0.000000, 20.000000)">
                    <mask id="mask-2" fill="white">
                        <use xlink:href="#path-1"></use>
                    </mask>
                    <g id="Clip-12"></g>
                    <path d="M33.522664,27.701281 C33.473664,26.7837293 33.412904,25.8681216 33.373704,24.9486259 C33.134584,19.5405138 33.003264,14.1343457 33.981304,8.77288879 C34.410544,6.42069052 35.208264,4.19485 36.809584,2.3403069 C38.430504,0.462436207 40.557104,-0.0585465517 42.901264,0.382733621 C44.451624,0.676272414 45.586464,1.63659138 46.276384,3.10234138 C47.385744,5.46231552 47.573904,8.00502241 47.705224,10.5282897 C48.110944,18.2711043 48.206984,26.0178069 47.393584,33.7470138 C46.815384,39.2309405 45.798144,44.617669 43.665664,49.743906 C42.013384,53.7193155 36.764504,55.4086216 33.064024,53.1322379 C31.131464,51.944475 29.596784,50.3173759 28.213024,48.5483672 C25.504304,45.0803328 23.416904,41.233225 21.317744,37.3938931 C19.694864,34.4235138 18.093544,31.4395267 16.476544,28.4633155 C16.331504,28.2008802 16.157064,27.9559405 15.829744,27.7459922 C15.802304,28.3000224 15.774864,28.8540526 15.747424,29.4080828 C15.445584,35.146669 15.157464,40.8852552 14.834064,46.6218974 C14.779184,47.5763845 14.622384,48.5269836 14.453824,49.4698069 C13.975584,52.1427595 10.578904,54.7962724 7.852544,54.6368672 C6.204184,54.539669 4.965464,53.7193155 4.010944,52.4226905 C2.431184,50.2687767 1.615824,47.7921647 1.278704,45.2125224 C0.776944,41.3634707 0.330064,37.4930353 0.155624,33.6187121 C-0.238336,24.9622336 0.088984,16.3232509 1.413944,7.74258707 C2.368464,1.56272069 7.744744,-1.46403362 13.554184,0.913436207 C14.692944,1.37998793 15.776824,2.0526 16.768584,2.78741897 C18.918704,4.37563879 20.496504,6.49067328 21.858704,8.75150517 C24.888864,13.780544 27.870024,18.8387422 30.878624,23.8813888 C31.658704,25.1857897 32.466224,26.4746388 33.260024,27.7693198 C33.348224,27.7459922 33.436424,27.7246086 33.522664,27.701281" id="Fill-11" fill="#5400FF" mask="url(#mask-2)"></path>
                </g>
                <path d="M494.842233,49.6259498 C494.854132,46.4620679 494.608216,43.8963908 493.604717,41.4181137 C491.688948,36.6965686 484.630745,36.2556839 481.975242,39.6973038 C481.298971,40.5732465 480.67823,41.5443582 480.283574,42.5659677 C479.073823,45.7026585 478.976646,48.9830739 479.295941,52.2829114 C479.537891,54.7786685 480.206229,57.1442966 481.731309,59.2069379 C482.679278,60.4907475 483.827549,61.5395482 485.509302,61.7998061 C488.254048,62.225153 490.588273,61.494877 492.244243,59.2399557 C492.882833,58.3698396 493.394498,57.3773634 493.779239,56.3751761 C494.681594,54.0328547 494.844216,51.5642888 494.842233,49.6259498 M463.206253,50.4552792 C463.109076,45.6152585 463.870624,40.9267312 465.83994,36.4635018 C469.790471,27.5117941 478.155602,22.4794933 488.107292,23.0427381 C499.262782,23.6759029 507.5823,31.0932541 509.317598,41.9541674 C510.332996,48.3052379 510.354811,54.6213484 508.421193,60.8267522 C506.281321,67.6866852 502.128504,72.9190351 495.13178,75.51773 C489.796977,77.4968556 484.285668,77.3531311 478.845755,75.917828 C473.715221,74.5621561 469.804354,71.536172 467.121086,67.0243871 C465.639637,64.5344567 464.642088,61.8522461 464.156205,59.0263111 C463.670321,56.1945494 463.378791,53.3317121 463,50.4805281 C463.069412,50.4727592 463.138824,50.4649903 463.206253,50.4552792" id="Fill-14" fill="#5400FF"></path>
                <path d="M86.8809354,49.1373776 C86.8631743,46.6341944 86.6697759,43.9129235 85.6455539,41.3132413 C84.6647478,38.8216379 82.9438969,37.132906 80.2126382,36.5519822 C75.9598473,35.6468219 72.5023579,37.2892343 70.7282237,41.1839326 C68.9343551,45.1230205 68.8356824,49.289846 69.2836562,53.491411 C69.5678335,56.1547825 70.3157721,58.6811255 71.93203,60.8890219 C73.0174291,62.375106 74.3396425,63.592923 76.2795466,63.8901398 C79.3897083,64.3649147 82.0380821,63.5446735 83.9089154,60.9797309 C84.6134381,60.0166712 85.1817925,58.9243029 85.619899,57.8203547 C86.6914839,55.1125937 86.8513336,52.2523643 86.8809354,49.1373776 M51.001589,51.8818082 C50.9542261,44.4899873 51.9587136,38.5996903 54.9524416,33.2092579 C60.166304,23.8295582 68.4449388,19.5392141 79.2199914,20.0390788 C92.1638687,20.6412323 101.715381,29.5384372 103.398736,42.1469923 C104.265082,48.6394429 104.345993,55.085574 102.627116,61.4660857 C100.54315,69.1917931 96.2804914,75.2635082 88.7438749,78.8030903 C84.70027,80.70412 80.368541,81.1306455 75.9539269,80.9685272 C70.6591529,80.7735993 65.6939455,79.5461324 61.3701103,76.3809662 C56.5035755,72.8201543 53.8137593,67.9276566 52.3908998,62.2747471 C51.4239079,58.4340882 51.001589,54.5278099 51.001589,51.8818082" id="Fill-16" fill="#5400FF"></path>
                <path d="M432.986195,79.9661937 C425.683927,80.2117001 421.130014,76.338155 418.305534,70.177114 C415.082855,63.1412131 412.531648,55.8403211 410.380593,48.4049851 C407.620527,38.8614118 405.071272,29.2632816 403.396494,19.4566658 C403.281329,18.780549 403.168115,18.1044322 403.078325,17.4244185 C402.674271,14.3906612 403.827876,12.1655161 406.669924,10.9983866 C407.911368,10.4859407 409.312873,10.2365374 410.661674,10.125475 C413.115283,9.92478329 415.484957,10.4430745 417.760938,11.3841823 C420.478061,12.5084456 422.498335,14.2951865 423.302541,17.2139845 C424.32927,20.9355494 425.268161,24.6824444 426.34564,28.3923185 C428.217566,34.841732 430.15781,41.2716609 432.096103,47.7015898 C432.291298,48.3504281 432.613371,48.9778333 432.968627,49.5584754 C433.562022,50.5288101 434.213975,50.5794701 434.936199,49.683177 C435.455419,49.0401841 435.95512,48.3387373 436.261577,47.5807851 C437.604522,44.2742429 438.972844,40.9715976 440.149873,37.6027045 C442.211138,31.7047061 444.09868,25.7482538 446.130666,19.840513 C447.139827,16.9139212 448.443734,14.1100825 451.057403,12.2161761 C455.021825,9.33829583 459.265378,9.45715209 463.487458,11.4601724 C465.890316,12.6019719 466.817495,14.8699832 466.96194,17.4458516 C467.203983,21.7480586 466.270948,25.8982855 464.750374,29.8419752 C461.443761,38.4366468 457.982943,46.9728646 454.381584,55.4486799 C452.492091,59.8950732 450.364459,64.2654764 447.983072,68.4663633 C446.433219,71.2039542 444.366098,73.6901934 442.283361,76.0751125 C439.85708,78.8536211 436.683199,80.2389786 432.986195,79.9661937" id="Fill-18" fill="#5400FF"></path>
                <path d="M561,52.5035884 C561.029026,45.9894643 561.746936,39.587179 563.689745,33.3379365 C565.839606,26.4235469 570.139329,22.0147406 577.2449,20.3803233 C582.848859,19.0912331 588.441207,18.4771003 594.118698,19.5503611 C595.57387,19.8250531 597.030976,20.3136124 598.370044,20.9532523 C601.882193,22.6288734 603.61021,26.2567696 602.776195,30.0180877 C602.439493,31.5328177 601.473894,32.5687989 600.045813,33.167235 C597.752757,34.1227707 595.333921,34.3444864 592.899605,34.4779082 C590.563977,34.6054437 588.220609,34.6231025 585.896592,34.8565907 C584.545914,34.9919746 583.212652,35.3981263 581.900675,35.7905434 C580.095256,36.330117 579.232216,37.707501 579.094826,39.5342027 C579.003878,40.7291128 579.079345,41.9357955 579.0658,43.1365918 C579.059995,43.8193976 579.35993,44.0391512 580.039139,44.0489616 C583.1546,44.1039 586.277801,44.125483 589.383586,44.3471986 C590.521406,44.4296062 591.668901,44.9377864 592.729319,45.4302699 C593.834243,45.93845 594.31801,46.9783554 594.408959,48.2026968 C594.668258,51.6638157 593.118268,54.467636 589.93895,55.774385 C588.36961,56.4218733 586.662879,56.7848591 584.985175,57.0889823 C583.237808,57.4068402 581.453675,57.5186791 579.683087,57.6756459 C579.090956,57.7286222 578.849072,57.9523 578.909059,58.5585844 C578.992267,59.374812 578.976787,60.2067363 579.110307,61.0131535 C579.553437,63.6737415 581.395623,65.2846138 584.344667,65.5632299 C587.52592,65.8653911 590.697497,65.747666 593.863269,65.2944242 C595.434545,65.0687844 597.030976,64.9392867 598.615798,64.9353626 C601.560972,64.9275142 603.794041,67.168216 603.977873,70.1643206 C604.165574,73.2134016 603.163209,75.7307574 600.814035,77.6987292 C598.222979,79.8687959 595.16944,80.8988908 591.924331,81.4011847 C585.817254,82.3449479 579.745009,82.2605782 573.755972,80.5162841 C573.516023,80.4476111 573.28188,80.3612794 573.043867,80.284758 C567.92174,78.632682 564.632124,75.2382739 563.149861,69.9484912 C561.549559,64.234898 561.065792,58.4016176 561,52.5035884" id="Fill-20" fill="#5400FF"></path>
                <path d="M524.913245,39.2005654 C522.36383,38.9973566 519.907261,38.8355787 517.460364,38.5968576 C515.657591,38.4212694 513.825803,38.1864942 512.330585,37.0362927 C511.583943,36.4641513 510.814089,35.7341778 510.431096,34.8956948 C508.740513,31.1984777 508.579965,27.3177808 509.779235,23.4627316 C510.669016,20.6039976 513.173942,18.9921372 516.299781,19 C524.468355,19.0217308 532.636929,19.057243 540.807438,19.1302403 C543.64313,19.155888 546.478823,19.2466415 549.308712,19.4222297 C551.152106,19.536658 552.931668,20.035802 554.564222,20.9867405 C558.098199,23.0444765 559.943527,28.2509631 558.514075,32.1395516 C558.05371,33.3903711 557.167798,34.2604205 556.113601,34.9805295 C553.802105,36.5667422 551.152106,37.1605855 548.473092,37.6202715 C546.353093,37.9852582 544.221488,38.269356 541.98543,38.6047492 C541.98543,39.0151127 541.975758,39.3879911 541.987364,39.7588965 C542.213678,47.2934066 542.480612,54.823971 542.658568,62.3584811 C542.76689,67.0303114 542.753349,71.7060875 542.759152,76.3798908 C542.759152,76.7468504 542.550247,77.1769429 542.316196,77.474851 C538.743533,82.0263343 531.774229,83.3679072 526.785653,80.4716881 C525.37361,79.6509611 524.321348,78.6191338 524.302005,76.7567149 C524.247844,71.956646 523.942224,67.1546042 524.042808,62.360454 C524.201421,54.8594832 524.609559,47.3644311 524.911311,39.8654332 C524.919048,39.6819534 524.913245,39.4945277 524.913245,39.2005654" id="Fill-22" fill="#5400FF"></path>
                <path d="M612.036017,33.2657406 C612.036017,28.3690811 612.038034,23.4744079 612.036017,18.5777484 C612.033999,17.2388646 611.957334,15.8960078 612.033999,14.561097 C612.185313,11.9210724 613.331261,10.5206079 615.875346,9.71012629 C619.373714,8.59770058 622.872083,8.91950945 626.336154,9.80150412 C633.72429,11.6846819 637.678617,16.4224235 638.638953,24.3107137 C639.611395,32.2983276 638.517903,40.125037 636.573019,47.8385174 C635.596543,51.722075 634.160073,55.5003495 632.798251,59.2786239 C631.845985,61.920635 630.0968,64.0839057 627.998586,65.9631105 C625.109506,68.5534733 621.294388,68.6766347 618.221714,66.31273 C616.111395,64.6877939 614.977552,62.4490372 614.112039,60.0414301 C612.921705,56.7279907 612.366889,53.283444 612.308381,49.7912218 C612.217593,44.2827281 612.284171,38.7742344 612.284171,33.2657406 C612.201453,33.2657406 612.118735,33.2657406 612.036017,33.2657406" id="Fill-24" fill="#5400FF"></path>
                <path d="M621.729898,88.9996368 C617.988499,89.0300695 614.748145,87.1452759 613.62285,84.2988115 C612.353814,81.0871556 613.062257,78.1473645 615.39909,75.635659 C618.598376,72.1967729 623.87576,71.0606217 628.120255,72.8175983 C632.687143,74.7105073 634.327855,79.5411785 631.841119,83.79363 C630.052558,86.8531227 627.177719,88.2144752 623.803889,88.7703778 C622.986613,88.9042813 622.15907,88.9550023 621.729898,88.9996368" id="Fill-26" fill="#5400FF"></path>
            </g>
        </g>
    </g>
</svg>