<?xml version="1.0" encoding="UTF-8"?>
<svg width="155px" height="96px" viewBox="0 0 155 96" version="1.1" xmlns="http://www.w3.org/2000/svg" xmlns:xlink="http://www.w3.org/1999/xlink">
    <!-- Generator: Sketch 61 (89581) - https://sketch.com -->
    <title>Group 38</title>
    <desc>Created with Sketch.</desc>
    <defs>
        <polygon id="path-1" points="0 0.662 154.752777 0.662 154.752777 96 0 96"></polygon>
    </defs>
    <g id="DESIGN-V-1" stroke="none" stroke-width="1" fill="none" fill-rule="evenodd">
        <g id="My-Voter-Info-v3" transform="translate(-84.000000, -541.000000)">
            <g id="Group-38" transform="translate(84.000000, 540.000000)">
                <g id="Group-3" transform="translate(0.000000, 0.338000)">
                    <mask id="mask-2" fill="white">
                        <use xlink:href="#path-1"></use>
                    </mask>
                    <g id="Clip-2"></g>
                    <path d="M8.4065,2.313 C8.3265,2.371 8.2485,2.438 8.1725,2.519 C7.6155,3.105 7.4725,3.96 7.3565,4.761 C6.6185,9.839 5.9395,14.551 3.3215,19.133 C2.8975,19.904 2.4395,20.667 2.1775,21.505 C1.3645,24.095 2.4445,27.23 0.8565,29.431 C0.5475,29.861 0.1365,30.25 0.0285,30.769 C-0.1255,31.51 0.3855,32.212 0.5405,32.954 C0.7965,34.181 0.0525,35.433 0.2215,36.675 C0.3785,37.821 1.2635,38.746 1.6505,39.805 C2.6325,42.489 2.4025,45.269 3.0435,47.944 C3.3425,49.193 3.9805,50.303 4.4435,51.491 C4.8415,52.512 4.7225,54.129 5.1745,54.991 C6.2435,57.035 9.9055,57.983 11.5295,59.676 C11.8485,60.009 12.1385,60.371 12.3955,60.753 C14.0245,63.177 16.3235,65.13 19.1625,65.818 C20.5395,66.152 21.8785,66.641 23.1435,67.277 C26.2605,68.845 28.9165,71.276 32.1595,72.562 C34.5095,73.494 37.0465,73.777 39.5785,73.949 C40.4115,74.005 41.1625,73.45 41.3525,72.637 L41.3565,72.623 C46.6235,72.676 49.1805,74.54 51.7425,80.118 C52.5715,81.924 53.9435,83.456 55.6855,84.413 C55.9675,84.566 56.2795,84.694 56.5935,84.642 C57.1825,84.545 57.4805,83.905 57.8085,83.406 C59.0865,81.463 62.2645,81.198 63.8455,82.902 C65.4135,84.59 65.2795,87.427 66.9755,88.986 C67.5175,89.484 68.2355,89.837 68.5555,90.501 C68.8275,91.062 68.7495,91.722 68.8355,92.341 C69.0535,93.914 70.3595,95.162 71.8265,95.766 L71.8705,95.785 C73.8005,96.572 75.8175,95.1 75.8085,93.015 C75.8055,92.457 75.8815,91.904 76.0705,91.369 C76.4895,90.187 77.4145,89.263 78.3545,88.434 C80.9615,86.135 83.9185,84.204 87.0875,82.775 C90.0495,81.439 93.2935,82.392 96.2255,83.535 C96.8575,83.782 97.5015,84.044 98.1785,84.073 C99.1575,84.115 100.1425,83.625 100.7005,82.819 C101.3555,83.325 102.0105,83.831 102.6665,84.337 L103.2965,83.514 C102.1395,82.669 100.8175,81.477 101.9075,79.869 C102.3415,79.229 103.1235,78.951 103.8955,78.977 C106.8285,79.076 111.2585,77.525 114.0345,79.118 C114.5945,79.439 115.1345,79.895 115.7795,79.902 C116.3285,79.908 116.8165,79.585 117.3145,79.355 C119.6595,78.269 122.7855,79.447 123.8315,81.81 C124.2965,82.861 124.3755,84.036 124.6705,85.146 C125.4495,88.083 127.6645,90.387 129.7965,92.552 C130.9695,93.743 132.2605,95.754 134.0875,94.69 C135.9135,93.625 134.7915,88.585 133.3925,85.848 C131.9945,83.11 129.9795,80.712 128.6905,77.921 C127.4015,75.131 126.9525,71.644 128.6945,69.112 C129.6585,67.71 131.1815,66.762 132.1095,65.337 C133.0285,63.928 133.4235,62.011 134.9245,61.251 C135.2415,61.088 135.5955,60.991 135.8785,60.773 C136.3715,60.391 136.5385,59.735 136.8195,59.177 C137.5715,57.683 139.1895,56.932 140.5345,56.076 C140.1695,55.457 139.7175,54.855 139.6325,54.192 C140.1115,54.014 140.6055,53.925 141.1035,53.8 C143.0065,53.325 139.1615,47.959 138.4055,47.227 C140.3365,46.131 141.0325,43.717 141.3555,41.521 C141.6785,39.326 141.8655,36.951 143.2875,35.247 L141.8425,33.301 C145.4855,32.125 148.6745,29.594 150.6455,26.312 L149.0315,24.063 L149.7605,22.866 C148.7525,21.709 148.7265,19.816 149.7045,18.633 C150.6335,17.508 152.4235,16.698 152.1905,15.258 C152.2115,15.384 152.4385,15.336 152.7865,15.182 C154.8105,14.287 155.3685,11.719 154.0065,9.975 C153.0905,8.802 150.8725,4.227 148.3095,4.426 C145.7475,4.625 147.5655,10.213 146.1975,12.86 C144.5605,16.026 139.9165,15.598 136.7905,17.31 C134.7795,18.411 133.4485,20.401 131.8815,22.075 C130.8745,23.15 129.6145,24.147 128.2455,24.604 C127.0045,25.019 126.2365,26.251 126.5415,27.524 L126.5515,27.566 C122.4475,30.59 118.2215,33.45 113.8875,36.134 C115.4295,32.821 118.2505,28.535 117.3725,24.381 C116.4835,20.177 112.2535,17.688 108.4345,15.716 L101.4185,12.094 C99.8615,11.291 97.9825,11.44 96.5725,12.48 C96.5725,12.48 85.0225,10.719 83.9025,10.181 C82.7835,9.643 81.7355,8.298 81.4825,8.89 C81.2745,9.376 74.9945,8.979 74.2345,8.975 C71.6835,8.962 69.1345,8.904 66.5855,8.801 C61.3545,8.589 56.1315,8.189 50.9285,7.6 C38.5045,6.195 26.2935,3.424 14.0975,0.725 C12.8265,0.444 11.5105,1.123 11.0755,2.35 C11.0755,2.513 10.9595,2.694 10.8465,2.8 C10.1655,2.266 9.2045,1.742 8.4065,2.313" id="Fill-1" fill="#002258" mask="url(#mask-2)"></path>
                </g>
                <path d="M58.635,20.2115 C59.156,19.6875 59.641,19.2225 60.099,18.7325 C60.85,17.9295 61.541,17.0685 62.419,16.3935 C63.084,15.8815 63.785,15.4335 64.628,15.2645 C65.669,15.0565 66.595,15.5825 66.881,16.5525 C67.016,17.0115 66.953,17.4585 66.767,17.8915 C66.501,18.5075 66.082,19.0245 65.606,19.4745 C64.686,20.3445 63.724,21.1715 62.78,22.0175 C62.552,22.2205 62.336,22.4375 62.1,22.6295 C61.92,22.7745 61.904,22.9115 62.031,23.0975 C62.453,23.7115 62.828,24.3615 63.296,24.9395 C64.254,26.1245 65.269,27.2645 66.244,28.4365 C66.562,28.8175 66.864,29.2195 67.114,29.6475 C67.711,30.6685 67.318,31.6195 66.184,31.9665 C66.038,32.0105 65.889,32.0455 65.739,32.0735 C64.966,32.2225 64.19,32.2295 63.418,32.0735 C62.235,31.8375 61.457,31.0665 60.953,30.0295 C60.516,29.1305 60.16,28.1905 59.781,27.2635 C59.5,26.5805 59.243,25.8895 58.964,25.2055 C58.921,25.1025 58.817,25.0235 58.74,24.9335 C58.685,25.0385 58.594,25.1405 58.581,25.2505 C58.49,26.0155 58.404,26.7795 58.34,27.5475 C58.266,28.4345 58.25,29.3275 58.145,30.2115 C58.086,30.7055 57.934,31.1975 57.759,31.6665 C57.572,32.1705 57.163,32.4135 56.615,32.3575 C56.226,32.3165 55.829,32.2855 55.453,32.1865 C54.481,31.9295 54.018,31.1805 53.826,30.2765 C53.663,29.5035 53.558,28.7075 53.531,27.9185 C53.41,24.4205 53.328,20.9225 53.23,17.4235 C53.213,16.8385 53.191,16.2525 53.161,15.6675 C53.132,15.0875 53.338,14.8215 53.9,14.7075 C54.795,14.5255 55.688,14.5535 56.577,14.7325 C57.083,14.8335 57.457,15.1415 57.769,15.5355 C58.305,16.2155 58.557,17.0095 58.617,17.8535 C58.666,18.5385 58.632,19.2305 58.635,19.9195 L58.635,20.2115 Z" id="Fill-4" fill="#B7ECE6"></path>
                <path d="M14.5774,26.0269 C14.7134,26.6889 14.8494,27.3509 14.9864,28.0129 C15.1124,28.6249 15.2254,28.7069 15.8544,28.6369 C15.9314,28.6289 16.0054,28.6119 16.0794,28.5939 C17.9084,28.1549 18.8814,26.4979 18.3284,24.7029 C17.7964,22.9739 16.0594,22.3059 14.3704,23.2829 C14.1504,23.4089 14.0554,23.5679 14.1204,23.8459 C14.2904,24.5689 14.4274,25.2989 14.5774,26.0269 M13.1654,18.3859 C14.8174,18.0999 16.5954,17.9309 18.3734,18.3639 C20.5324,18.8879 22.2024,20.0829 23.1024,22.1439 C24.1994,24.6549 24.3114,27.1859 22.8764,29.6329 C21.9184,31.2659 20.4714,32.3429 18.7424,33.0409 C18.0574,33.3169 17.3284,33.4859 16.6144,33.6839 C16.4264,33.7359 16.3514,33.7819 16.3744,34.0019 C16.4904,35.1659 16.5834,36.3329 16.6884,37.4989 C16.7244,37.8949 16.6114,38.2429 16.3314,38.5149 C15.3074,39.5099 14.0984,39.9369 12.6774,39.6489 C12.0334,39.5179 11.6084,39.1349 11.4284,38.4939 C11.0714,37.2279 10.6744,35.9739 10.3624,34.6979 C9.3874,30.7069 8.6594,26.6679 8.1184,22.5939 C8.0674,22.2069 8.0234,21.8179 7.9474,21.4359 C7.8984,21.1959 7.9624,21.0159 8.1064,20.8329 C8.6344,20.1639 9.3314,19.7269 10.0894,19.3749 C11.0344,18.9339 12.0254,18.6309 13.1654,18.3859" id="Fill-6" fill="#B7ECE6"></path>
                <path d="M37.137,23.4244 C37.166,21.5364 37.6,19.7064 38.713,18.0854 C39.986,16.2324 41.758,15.1624 43.977,14.8274 C45.512,14.5954 47.004,14.7784 48.439,15.3604 C49.293,15.7064 50.031,16.2344 50.567,16.9974 C51.078,17.7284 51.153,18.5334 50.859,19.3624 C50.598,20.0924 50.038,20.4634 49.28,20.5514 C48.69,20.6194 48.132,20.4984 47.582,20.2954 C47.042,20.0954 46.509,19.8354 45.949,19.7364 C43.616,19.3214 42.119,20.6994 41.857,22.6554 C41.756,23.4054 41.746,24.1444 42.01,24.8644 C42.571,26.4034 43.912,27.2384 45.543,27.1004 C46.317,27.0344 46.969,26.6914 47.605,26.2934 C47.958,26.0724 48.304,25.8364 48.658,25.6164 C49.158,25.3064 49.715,25.2344 50.283,25.3184 C51.11,25.4414 51.609,26.0794 51.578,26.9344 C51.537,28.0844 51.104,29.0684 50.299,29.8884 C49.107,31.1044 47.63,31.7684 45.975,32.0314 C42.96,32.5114 40.115,31.1324 38.499,28.4534 C37.576,26.9234 37.139,25.2624 37.137,23.4244" id="Fill-8" fill="#B7ECE6"></path>
                <path d="M31.5403,39.1236 C30.6373,39.1816 29.5943,39.2876 28.5503,39.3036 C27.3093,39.3216 26.6473,38.7436 26.4463,37.5166 C26.3633,37.0046 26.3573,36.4766 26.3533,35.9546 C26.3513,35.5426 26.5553,35.2186 26.8833,34.9596 C27.1963,34.7126 27.5013,34.4506 27.7863,34.1716 C28.0193,33.9436 28.0943,33.6586 28.0553,33.3166 C27.6823,29.9976 27.3273,26.6756 26.9513,23.3556 C26.8813,22.7386 26.7563,22.1256 26.6183,21.5196 C26.4963,20.9826 26.1653,20.5756 25.6143,20.4616 C24.6273,20.2566 24.2663,19.5496 24.1313,18.6746 C24.0613,18.2166 24.0583,17.7426 24.0753,17.2786 C24.1013,16.5856 24.4723,16.0946 25.0653,15.7556 C25.7543,15.3626 26.5083,15.1796 27.2813,15.0556 C28.8333,14.8076 30.3883,14.5736 31.9663,14.6736 C33.7113,14.7826 34.3813,15.5136 34.5003,17.2586 C34.5733,18.3326 34.1523,19.0926 33.2503,19.6086 C32.8493,19.8396 32.6973,20.1476 32.7523,20.6016 C32.9713,22.4266 33.1923,24.2506 33.3863,26.0776 C33.6093,28.1916 33.8163,30.3096 34.0033,32.4276 C34.0593,33.0616 34.3173,33.4686 34.9383,33.6476 C35.1713,33.7156 35.3913,33.8386 35.6043,33.9556 C35.9813,34.1636 36.2783,34.4656 36.3363,34.8986 C36.4203,35.5216 36.5253,36.1586 36.4813,36.7796 C36.4093,37.8096 35.9183,38.3266 34.9053,38.5316 C33.8373,38.7486 32.7573,38.9116 31.5403,39.1236" id="Fill-10" fill="#B7ECE6"></path>
                <path d="M81.9798,60.2281 C81.9798,60.4021 81.9638,60.5791 81.9828,60.7501 C82.0418,61.3181 82.2728,61.6121 82.8328,61.6801 C83.3058,61.7381 83.7978,61.7361 84.2708,61.6761 C84.8158,61.6081 85.0458,61.3521 85.1108,60.8041 C85.2488,59.6331 85.0418,58.5071 84.5058,57.4601 C83.9978,56.4671 83.2978,56.4541 82.7208,57.4061 C82.1968,58.2701 81.9908,59.2261 81.9798,60.2281 M75.1338,67.9691 C75.1678,66.5121 75.3688,64.8401 75.6628,63.1781 C75.9818,61.3671 76.2698,59.5501 76.6268,57.7481 C76.8598,56.5781 77.2128,55.4381 77.8288,54.3971 C78.8208,52.7151 80.2798,51.7481 82.2198,51.5251 C84.1528,51.3031 85.9788,51.5521 87.5578,52.8041 C88.5908,53.6241 89.2838,54.6931 89.7758,55.9031 C90.4868,57.6481 90.8798,59.4731 91.1008,61.3351 C91.3598,63.5201 91.5968,65.7071 91.8098,67.8951 C91.9408,69.2391 91.9828,70.5871 91.5358,71.8951 C91.0548,73.3011 89.9648,74.1031 88.4858,74.1671 C87.5478,74.2081 86.8338,73.8361 86.3308,73.0471 C85.8538,72.3011 85.6418,71.4651 85.5518,70.6021 C85.4478,69.5901 85.3798,68.5751 85.3158,67.5591 C85.2638,66.7381 85.1638,66.5471 84.3508,66.4511 C83.7378,66.3771 83.1068,66.4391 82.4848,66.4741 C82.1158,66.4961 81.9058,66.7271 81.8338,67.1021 C81.6168,68.2311 81.3978,69.3601 81.1578,70.4851 C80.9398,71.5061 80.6018,72.4721 79.9288,73.3101 C79.1258,74.3101 77.3898,74.1791 76.6278,73.4211 C75.6538,72.4531 75.2488,71.2501 75.1418,69.9271 C75.0958,69.3551 75.1338,68.7771 75.1338,67.9691" id="Fill-12" fill="#FFFFFF"></path>
                <path d="M116.364393,65.9910658 C116.409912,66.4324292 116.413483,66.8433856 116.500952,67.234992 C116.643758,67.8726194 117.040938,68.3047686 117.664824,68.4715469 C117.937941,68.545261 118.221769,68.5922538 118.503812,68.6088395 C119.550762,68.6696536 120.591464,68.6051538 121.630381,68.4392969 C122.06237,68.3711113 122.511318,68.3517614 122.946877,68.3821685 C123.845665,68.4457469 124.506145,69.1921027 124.558805,70.1245867 C124.618605,71.1998918 124.237491,72.0614259 123.412783,72.722089 C122.630918,73.3495807 121.724097,73.6637872 120.765509,73.8333298 C118.862613,74.1678077 116.963287,74.1539863 115.085383,73.6665515 C113.986666,73.3818306 112.962029,72.92296 112.211403,71.9923189 C111.658028,71.3058559 111.379556,70.4821003 111.166238,69.635309 C110.613756,67.4423131 110.497726,65.2060101 110.596798,62.9549643 C110.671771,61.2374246 110.892229,59.537392 111.445604,57.9083094 C111.671416,57.2421177 111.966847,56.5943547 112.292624,55.9723915 C112.795124,55.0095005 113.593055,54.3681874 114.577527,53.9811881 C116.821374,53.100304 119.126805,52.8201902 121.495607,53.2818251 C122.367619,53.4522891 123.16912,53.7922956 123.72785,54.5607656 C124.229458,55.2490714 124.274977,56.0396557 124.127708,56.8366899 C124.042917,57.2946391 123.712677,57.6042385 123.287828,57.7876024 C122.643414,58.0649519 121.963298,58.1653875 121.276042,58.2086945 C120.415633,58.2621373 119.550762,58.2676658 118.693923,58.3533585 C118.226232,58.4003513 117.761218,58.5440939 117.309593,58.6896793 C116.780317,58.8619862 116.51077,59.2876854 116.46882,59.8414629 C116.435796,60.2736121 116.464357,60.7112899 116.45454,61.1452819 C116.450077,61.3608958 116.539331,61.41526 116.736582,61.4143386 C117.506844,61.40881 118.279784,61.3903815 119.048262,61.4373742 C119.555224,61.4687027 120.071113,61.5525526 120.556655,61.704588 C121.221597,61.9109876 121.452765,62.3182583 121.440269,63.0314427 C121.417063,64.2458833 120.84673,65.0991246 119.706064,65.4363668 C118.972396,65.654745 118.200348,65.7404377 117.441689,65.8694374 C117.109664,65.9265659 116.770499,65.9468373 116.364393,65.9910658" id="Fill-14" fill="#FFFFFF" transform="translate(117.564887, 63.561899) rotate(11.000000) translate(-117.564887, -63.561899) "></path>
                <path d="M49.7452592,71.4444339 C48.4605218,71.3974125 47.2079795,71.214029 46.0274929,70.6435028 C44.3847768,69.8488413 44.2467978,68.0134395 44.8224767,66.8379047 C45.1582255,66.1545271 45.8596185,65.5416816 47.1282583,65.8935584 C47.9101391,66.1106405 48.6981522,66.3167509 49.4938309,66.4680031 C49.8633079,66.5377515 50.2596141,66.4828932 50.6413559,66.4491945 C50.874387,66.4296023 51.0828885,66.3167509 51.1511115,66.0502964 C51.2269999,65.7540616 51.1810069,65.4735006 50.9518085,65.2752271 C50.719544,65.0738188 50.4581505,64.9037581 50.196757,64.7407506 C49.4509041,64.2752388 48.6835878,63.8434256 47.954599,63.3528358 C47.3635891,62.9539376 46.7978754,62.5017486 46.4077016,61.8787151 C44.5840797,58.9641724 45.6143226,55.1444679 49.0270021,53.8991847 C50.8605891,53.2306972 52.6673469,53.4321055 54.3437912,54.4673598 C55.2322224,55.0159427 55.7580755,55.8317639 55.7895041,56.925795 C55.8155667,57.8246873 55.3380062,58.4641783 54.4649061,58.5770296 C53.9490181,58.6444269 53.4147329,58.5840828 52.8896463,58.5621395 C52.4419813,58.5433309 51.9950828,58.4767173 51.5474177,58.4751499 C51.3097873,58.4735825 51.0598921,58.5307919 50.8391257,58.6216999 C50.4888125,58.7651152 50.4075582,59.0762401 50.6313907,59.3850139 C50.7747355,59.5832874 50.944143,59.7760751 51.1403798,59.9171393 C51.8226091,60.4077292 52.5217024,60.8740247 53.2138969,61.3505081 C54.1651851,62.0048892 55.0766128,62.7039405 55.7887375,63.64045 C56.2440681,64.2384053 56.4985626,64.9029744 56.5123605,65.6662883 C56.5422559,67.2485582 56.1321518,68.6607674 54.9861599,69.7845787 C54.1743837,70.5792402 53.1801687,71.0196739 52.0932011,71.2187312 C51.320519,71.360579 50.5332724,71.4170047 49.7536913,71.5118312 C49.7506251,71.4898879 49.7483254,71.4663772 49.7452592,71.4444339" id="Fill-16" fill="#FFFFFF" transform="translate(50.513872, 62.511831) rotate(-15.000000) translate(-50.513872, -62.511831) "></path>
                <path d="M62.6507,58.9713 C61.8997,58.9223 61.1727,58.8913 60.4497,58.8233 C59.9497,58.7753 59.4487,58.7033 58.9587,58.5953 C57.9807,58.3783 57.3357,57.7853 57.0977,56.7973 C56.8247,55.6623 56.7227,54.5173 57.1017,53.3903 C57.4327,52.4043 58.1467,51.8433 59.1927,51.7313 C59.3357,51.7153 59.4797,51.7103 59.6237,51.7103 C63.1597,51.7313 66.6957,51.7463 70.2317,51.7793 C71.2297,51.7873 72.2277,51.8523 73.1587,52.2763 C74.6537,52.9563 75.4507,54.8143 74.9267,56.3793 C74.7647,56.8643 74.4297,57.1993 74.0187,57.4713 C73.1207,58.0653 72.0917,58.2723 71.0557,58.4433 C70.4377,58.5453 69.8177,58.6443 69.1957,58.7143 C68.9237,58.7453 68.8627,58.8603 68.8707,59.1113 C68.9507,61.6273 69.0317,64.1453 69.0907,66.6623 C69.1357,68.5323 69.1527,70.4033 69.1677,72.2733 C69.1687,72.4303 69.0927,72.6173 68.9927,72.7423 C67.6817,74.3813 65.1817,74.8583 63.3457,73.8283 C62.7847,73.5143 62.4527,73.0963 62.4097,72.3943 C62.2487,69.7633 62.2807,67.1343 62.3927,64.5043 C62.4687,62.7383 62.5647,60.9723 62.6507,59.2063 C62.6537,59.1373 62.6507,59.0683 62.6507,58.9713" id="Fill-18" fill="#FFFFFF"></path>
                <path d="M97.8518,58.9713 C97.1168,58.9233 96.4008,58.8883 95.6858,58.8253 C95.2368,58.7873 94.7808,58.7463 94.3438,58.6413 C93.0008,58.3203 92.4998,57.7833 92.2228,56.4343 C92.0418,55.5533 91.9998,54.6563 92.1998,53.7703 C92.5018,52.4283 93.3998,51.7153 94.7748,51.7113 C96.6148,51.7063 98.4558,51.7023 100.2948,51.7203 C102.3098,51.7403 104.3248,51.7683 106.3378,51.8263 C107.1638,51.8503 107.9698,52.0193 108.7018,52.4443 C109.3018,52.7913 109.7298,53.2893 109.9838,53.9323 C110.2148,54.5153 110.2798,55.1263 110.2528,55.7483 C110.2198,56.5613 109.8028,57.1323 109.1228,57.5433 C108.2408,58.0753 107.2568,58.2813 106.2608,58.4443 C105.6418,58.5443 105.0228,58.6463 104.4008,58.7143 C104.1228,58.7453 104.0718,58.8673 104.0788,59.1133 C104.1308,60.9313 104.1778,62.7503 104.2188,64.5693 C104.2768,67.1173 104.3328,69.6653 104.3728,72.2133 C104.3758,72.4083 104.2848,72.6403 104.1608,72.7923 C102.8528,74.3943 100.3188,74.8473 98.5258,73.8123 C97.9798,73.4973 97.6648,73.0813 97.6218,72.3923 C97.4558,69.7293 97.4968,67.0703 97.6088,64.4083 C97.6828,62.6533 97.7778,60.8983 97.8638,59.1423 C97.8658,59.1013 97.8588,59.0613 97.8518,58.9713" id="Fill-20" fill="#FFFFFF"></path>
                <path d="M33.6897,48.6324 C33.5937,48.4624 33.4917,48.2964 33.4047,48.1224 C32.9467,47.2214 32.4677,46.3314 32.3247,45.2904 C32.2777,44.9504 32.3117,44.6004 32.4497,44.2434 C32.6377,43.7694 33.2207,43.3564 33.7467,43.3234 C34.1627,43.2984 34.4427,43.4804 34.6227,43.7474 C34.9047,44.1664 35.1817,44.5964 35.3867,45.0584 C35.7937,45.9634 36.1757,46.8814 36.5097,47.8164 C36.8937,48.8914 37.1277,50.0094 37.1507,51.1724 C37.1627,51.7624 36.8867,52.1864 36.3717,52.5174 C36.0507,52.7234 35.7047,52.7634 35.3457,52.7114 C34.7547,52.6254 34.2117,52.4174 33.7237,52.1374 C32.9287,51.6844 32.1497,51.2154 31.3507,50.7754 C31.0517,50.6104 30.7577,50.4414 30.4237,50.2574 C30.4417,50.3244 30.4487,50.3524 30.4567,50.3764 C30.8487,51.2384 31.2507,52.0964 31.6407,52.9584 C31.7577,53.2224 31.8467,53.5014 31.9447,53.7764 C32.1147,54.2644 31.5777,55.1354 30.9957,55.2384 C30.7877,55.2764 30.5977,55.2654 30.4137,55.2014 C29.9627,55.0444 29.6337,54.7554 29.3347,54.4314 C28.4607,53.4814 27.8187,52.3864 27.2057,51.2724 C26.7607,50.4744 26.3737,49.6464 26.1057,48.7574 C25.9257,48.1664 26.0627,47.5394 26.6947,46.9914 C27.2047,46.5464 27.8137,46.3944 28.4187,46.3834 C28.8917,46.3744 29.3217,46.4654 29.7067,46.6394 C30.5807,47.0364 31.4257,47.4714 32.2717,47.9164 C32.6527,48.1204 33.0347,48.3324 33.4127,48.5454 C33.4867,48.5894 33.5727,48.6234 33.6517,48.6624 C33.6627,48.6534 33.6807,48.6414 33.6897,48.6324" id="Fill-22" fill="#B7ECE6"></path>
                <path d="M43.513,44.1451 C43.47,44.0341 43.399,43.8251 43.306,43.6241 C43.238,43.4711 43.154,43.3241 43.058,43.1841 C42.603,42.5121 41.84,42.3701 41.01,42.8131 C40.54,43.0651 40.324,43.4591 40.246,43.9041 C40.127,44.5791 40.318,45.1841 40.565,45.7711 C40.747,46.1941 41.001,46.5781 41.385,46.8681 C41.753,47.1471 42.164,47.2981 42.683,47.1221 C43.316,46.9061 43.606,46.4691 43.714,45.8901 C43.821,45.3161 43.693,44.7771 43.513,44.1451 M46.585,43.2241 C46.9,44.4401 46.992,45.4671 46.744,46.5101 C46.452,47.7321 45.801,48.7041 44.666,49.3331 C43.528,49.9651 42.334,50.2941 41.016,50.1181 C40.022,49.9841 39.222,49.5351 38.611,48.8371 C37.563,47.6421 36.902,46.2811 36.8989505,44.6371 C36.893,43.2911 37.432,42.0311 38.722,41.0261 C40.323,39.7711 42.72,39.2111 44.551,40.2841 C45.304,40.7191 45.829,41.3321 46.148,42.0941 C46.331,42.5311 46.491,42.9781 46.585,43.2241" id="Fill-24" fill="#B7ECE6"></path>
                <path d="M79.1214,38.8014 C79.0824,39.0914 79.0504,39.3794 79.0074,39.6674 C78.9904,39.7734 79.0184,39.8254 79.1244,39.8564 C79.6354,40.0034 80.1384,40.0044 80.6214,39.7574 C81.1354,39.4944 81.3934,38.6924 81.1094,38.2134 C80.8104,37.7014 79.9334,37.4544 79.3914,37.7324 C79.3234,37.7684 79.2504,37.8624 79.2384,37.9364 C79.1874,38.2224 79.1584,38.5134 79.1214,38.8014 M81.3974,42.4374 C81.4334,42.5124 81.4584,42.5644 81.4844,42.6144 C81.9764,43.5254 82.4644,44.4414 82.9104,45.3784 C83.1034,45.7804 83.2074,46.2174 83.1744,46.6814 C83.1404,47.1334 82.9224,47.4194 82.5074,47.5024 C81.8154,47.6414 81.2274,47.4404 80.7354,46.8954 C80.2054,46.3094 79.8224,45.6154 79.4454,44.9114 C79.1974,44.4454 78.9444,43.9814 78.6874,43.5184 C78.6544,43.4634 78.6434,43.3994 78.6224,43.3384 C78.5944,43.3544 78.5664,43.3694 78.5414,43.3854 C78.5404,43.4584 78.5344,43.5314 78.5324,43.6044 C78.4994,44.3224 78.3984,45.0334 78.2154,45.7284 C78.0264,46.4384 77.7044,46.7184 77.0294,46.7874 C76.6854,46.8224 76.3524,46.7784 76.0254,46.6604 C75.4664,46.4584 75.2024,46.0574 75.2234,45.4054 C75.2424,44.8464 75.2724,44.2854 75.3134,43.7284 C75.4424,42.0374 75.5624,40.3484 75.7194,38.6594 C75.7804,37.9884 75.9104,37.3214 76.2694,36.7104 C76.8514,35.7194 77.7674,35.1784 78.9714,35.1014 C80.2204,35.0214 81.4504,35.1854 82.5774,35.7204 C83.9974,36.3934 84.6174,37.5314 84.4984,39.0334 C84.4354,39.8354 84.2334,40.5934 83.7174,41.2374 C83.1664,41.9214 82.4844,42.3254 81.6274,42.4074 C81.5594,42.4144 81.4924,42.4254 81.3974,42.4374" id="Fill-26" fill="#B7ECE6"></path>
                <path d="M65.4182,39.4937 C65.3782,40.5037 65.3522,41.6887 65.2912,42.8727 C65.2582,43.5267 65.1892,44.1807 65.0992,44.8287 C65.0662,45.0797 64.9472,45.3247 64.8362,45.5557 C64.7042,45.8267 64.4742,45.9797 64.1872,46.0077 C63.9272,46.0317 63.6582,46.0357 63.4012,45.9967 C62.8362,45.9117 62.5722,45.6697 62.4712,45.0987 C62.3552,44.4367 62.2922,43.7647 62.2032,43.0977 C62.1682,42.8387 62.1462,42.5747 62.0862,42.3197 C62.0172,41.9987 61.8352,41.8537 61.5032,41.8647 C61.1982,41.8767 60.8882,41.9187 60.5942,41.9977 C60.2722,42.0837 60.1362,42.2817 60.1542,42.5997 C60.1742,42.9447 60.2082,43.2927 60.2702,43.6327 C60.3672,44.1997 60.4602,44.7637 60.3332,45.3367 C60.2122,45.9037 59.8562,46.2517 59.3762,46.2777 C58.9442,46.3017 58.5742,46.1617 58.2712,45.8487 C57.9282,45.4947 57.7282,45.0557 57.5402,44.6097 C57.2092,43.8137 57.0042,42.9807 56.8462,42.1387 C56.5702,40.6827 56.4302,39.2147 56.4522,37.7227 C56.4532,37.5277 56.4692,37.3327 56.4902,37.1377 C56.5842,36.1237 57.4452,35.6817 58.2632,35.6527 C58.8672,35.6327 59.2452,35.8537 59.4322,36.3557 C59.4902,36.5147 59.5212,36.6847 59.5382,36.8537 C59.5912,37.3387 59.6182,37.8257 59.6852,38.3067 C59.7182,38.5797 59.7942,38.8477 59.8752,39.1087 C59.9632,39.3837 60.1872,39.5287 60.4912,39.5117 C60.7632,39.4957 61.0382,39.4537 61.3012,39.3837 C61.6432,39.2937 61.8182,39.0267 61.8312,38.7127 C61.8492,38.2307 61.8172,37.7517 61.8192,37.2687 C61.8162,36.9917 61.8022,36.7097 61.8482,36.4327 C61.9402,35.8497 62.2492,35.3697 62.8762,35.1027 C63.3262,34.9117 63.8022,34.8807 64.2712,34.9857 C64.8692,35.1217 65.1102,35.5467 65.2112,36.0507 C65.2832,36.4167 65.3272,36.7887 65.3482,37.1617 C65.3842,37.8797 65.3932,38.5977 65.4182,39.4937" id="Fill-28" fill="#B7ECE6"></path>
                <path d="M22.8411,54.2193 C22.9181,54.1593 23.0131,54.0923 23.0971,54.0193 C23.3261,53.8223 23.3831,53.6583 23.2931,53.4353 C23.1631,53.1183 22.9281,52.8813 22.6471,52.6903 C22.4751,52.5753 22.2781,52.4833 22.0671,52.4263 C21.8091,52.3563 21.5601,52.5333 21.4951,52.8093 C21.4681,52.9403 21.4541,53.0733 21.4601,53.1983 C21.4811,53.6123 21.6161,53.9703 21.8491,54.2773 C22.0701,54.5723 22.2561,54.5793 22.6631,54.3323 C22.7181,54.2983 22.7721,54.2623 22.8411,54.2193 M20.9291,59.0253 C20.3781,58.3353 19.9901,57.5383 19.6231,56.7263 C19.3381,56.1033 19.0621,55.4753 18.8141,54.8283 C18.6251,54.3333 18.5411,53.7903 18.6501,53.1843 C18.7931,52.3903 19.2561,51.6913 19.9831,51.0943 C20.6031,50.5823 21.2771,50.1663 22.0331,50.0013 C22.9101,49.8113 23.6321,49.9773 24.2681,50.3393 C25.0721,50.8023 25.6951,51.4413 26.2561,52.1353 C26.7831,52.7863 27.3111,53.4383 27.8231,54.1043 C28.1531,54.5333 28.4401,54.9953 28.5301,55.5493 C28.6501,56.2703 28.2311,56.9433 27.4711,57.2843 C27.0901,57.4563 26.7511,57.3943 26.4381,57.2453 C26.0491,57.0643 25.7751,56.7693 25.5191,56.4583 C25.3081,56.2013 25.1121,55.9343 24.9051,55.6733 C24.7101,55.4273 24.6311,55.4123 24.2781,55.5733 C23.9891,55.7053 23.7341,55.8883 23.4991,56.1033 C23.3331,56.2543 23.2831,56.3923 23.3511,56.5653 C23.5391,57.0393 23.7261,57.5133 23.8991,57.9913 C24.0311,58.3533 24.0881,58.7343 24.0191,59.1483 C23.9221,59.7213 23.1981,60.1443 22.7271,60.1283 C22.0991,60.1073 21.6471,59.8513 21.2741,59.4653 C21.1441,59.3313 21.0431,59.1723 20.9291,59.0253" id="Fill-30" fill="#B7ECE6"></path>
                <path d="M66.4602,40.7701 C66.4462,39.5831 66.5382,38.4381 66.9232,37.3231 C67.0512,36.9541 67.2292,36.5951 67.4232,36.2481 C67.7312,35.6991 68.2262,35.3271 68.8492,35.0981 C70.2382,34.5881 71.6912,34.4431 73.1472,34.7391 C73.6812,34.8481 74.1692,35.0601 74.4792,35.5081 C74.7502,35.8981 74.7542,36.3351 74.6262,36.7631 C74.4982,37.1841 74.1062,37.3291 73.7022,37.3731 C73.2032,37.4261 72.6972,37.4431 72.1952,37.4571 C71.6882,37.4711 71.1802,37.4611 70.6822,37.5951 C70.1082,37.7501 69.9442,37.9461 69.9102,38.5091 C69.8982,38.6811 69.9082,38.8541 69.9052,39.0251 C69.9022,39.1341 69.9502,39.1661 70.0602,39.1661 C70.5262,39.1691 70.9922,39.1671 71.4542,39.2061 C71.7412,39.2291 72.0352,39.2831 72.3062,39.3761 C72.7022,39.5151 72.8172,39.7371 72.7892,40.1471 C72.7472,40.7801 72.4032,41.1821 71.8212,41.3941 C71.3702,41.5591 70.8932,41.5871 70.4222,41.6211 C70.2602,41.6321 70.0972,41.6471 69.9352,41.6551 C69.8432,41.6601 69.7982,41.6961 69.8072,41.7901 C69.8192,41.9661 69.8082,42.1471 69.8412,42.3201 C69.9062,42.6741 70.1072,42.9281 70.4532,43.0411 C70.6142,43.0951 70.7842,43.1281 70.9522,43.1441 C71.5422,43.2001 72.1252,43.1981 72.7172,43.1361 C72.9312,43.1141 73.1512,43.1211 73.3692,43.1361 C73.9362,43.1801 74.3252,43.6491 74.2952,44.2381 C74.2602,45.0121 73.8342,45.4811 73.2072,45.7851 C72.7612,46.0011 72.2812,46.0871 71.8002,46.1221 C70.9082,46.1851 70.0292,46.1381 69.1602,45.9071 C68.8512,45.8261 68.5502,45.7071 68.2592,45.5731 C67.5422,45.2441 67.1402,44.6461 66.9092,43.8931 C66.5902,42.8641 66.4932,41.8061 66.4602,40.7701" id="Fill-32" fill="#B7ECE6"></path>
                <path d="M49.4192,40.8609 C49.0022,40.9389 48.6072,41.0299 48.2082,41.0919 C47.8942,41.1429 47.5762,41.1729 47.2662,41.1789 C46.8902,41.1859 46.6002,41.0239 46.4112,40.7469 C46.1132,40.3229 45.9452,39.8499 45.9382,39.3289 C45.9282,38.6729 46.3192,38.2079 47.0582,37.9999 C48.9472,37.4689 50.8562,37.0049 52.7752,36.6179 C53.1262,36.5479 53.4902,36.5049 53.8432,36.4979 C55.1702,36.4689 55.6202,37.3429 55.5842,38.2179 C55.5732,38.4239 55.4732,38.6049 55.3172,38.7659 C54.9852,39.1179 54.5572,39.3289 54.1062,39.4999 C53.6582,39.6679 53.2052,39.8229 52.7532,39.9749 C52.6082,40.0229 52.5982,40.0849 52.6232,40.1959 C52.8192,41.1059 53.0132,42.0179 53.2022,42.9319 C53.4312,44.0369 53.6492,45.1429 53.8752,46.2489 C53.8982,46.3679 53.8722,46.4649 53.8132,46.5679 C53.3082,47.4079 52.2132,47.8299 51.2742,47.5649 C50.9672,47.4769 50.7562,47.3229 50.6622,46.9949 C50.3222,45.8409 50.0732,44.6699 49.8652,43.4869 C49.7162,42.6519 49.5812,41.8139 49.4432,40.9749 C49.4372,40.9429 49.4312,40.9109 49.4192,40.8609" id="Fill-34" fill="#B7ECE6"></path>
                <path d="M82.6858,25.6168 C82.0618,24.7438 81.3938,23.8688 80.4868,23.2968 C79.9658,22.9678 79.3678,22.7368 78.9518,22.2838 C78.5358,21.8298 78.3958,21.0278 78.8708,20.6368 C79.0928,20.4528 79.3948,20.4028 79.6798,20.3608 C85.8368,19.4568 92.0868,19.1888 98.2988,19.5618 C99.1098,19.6108 100.1038,19.8098 100.3318,20.5898 C100.4968,21.1558 100.1488,21.7328 99.8158,22.2208 C98.6688,23.9048 97.5228,25.5888 96.3748,27.2728 C98.3988,27.9188 100.0048,29.5548 100.9598,31.4508 C101.9158,33.3468 102.2798,35.4898 102.3998,37.6098 C102.5808,40.8058 101.8138,44.6378 98.8608,45.8748 C98.1568,44.5298 98.6098,42.9078 98.7428,41.3948 C99.0858,37.4588 96.8808,33.4158 93.3838,31.5738 C92.6718,32.2938 92.5638,33.3958 92.4858,34.4058 C92.4078,35.4148 92.2758,36.5198 91.5398,37.2148 C89.3648,39.2648 88.1118,34.8548 87.5288,33.6798 C86.1328,30.8698 84.5118,28.1698 82.6858,25.6168" id="Fill-36" fill="#FD2F6A"></path>
            </g>
        </g>
    </g>
</svg>