<?xml version="1.0" encoding="UTF-8"?>
<svg width="248px" height="25px" viewBox="0 0 248 25" version="1.1" xmlns="http://www.w3.org/2000/svg" xmlns:xlink="http://www.w3.org/1999/xlink">
    <!-- Generator: Sketch 61.2 (89653) - https://sketch.com -->
    <title>Group 9</title>
    <desc>Created with Sketch.</desc>
    <defs>
        <polygon id="path-1" points="0.0524643787 0.17293455 17.8114737 0.17293455 17.8114737 23.9533984 0.0524643787 23.9533984"></polygon>
    </defs>
    <g id="DESIGN-V-1" stroke="none" stroke-width="1" fill="none" fill-rule="evenodd">
        <g id="Default-Page-Template" transform="translate(-626.000000, -8316.000000)">
            <g id="Group-11" transform="translate(0.000000, 8194.000000)">
                <g id="Group-10" transform="translate(564.000000, 94.000000)">
                    <g id="Group-9" transform="translate(62.000000, 28.324818)">
                        <g id="Group-28">
                            <path d="M167.91296,16.0572178 C167.735848,16.4556535 167.61462,16.717626 167.50214,16.9834973 C166.842793,18.5423353 166.166486,20.0943038 165.110781,21.4180907 C164.358058,22.3620083 163.503389,23.1835731 162.250756,23.3018413 C161.061861,23.4141683 159.972412,23.1306588 159.226117,22.0953943 C158.741025,21.4227323 158.267895,20.7006836 157.975982,19.9246065 C156.801728,16.8022889 156.155057,13.5316255 155.639971,10.2331123 C155.23415,7.63511089 154.988123,5.02039964 155.000442,2.38396565 C155.006512,1.08412943 155.196478,0.769985325 156.410012,0.487961155 C158.651755,-0.0330130536 160.787267,0.630551387 161.600336,3.39806441 C161.717279,3.79594315 161.834401,4.20180545 161.881179,4.61249503 C162.160772,7.06753493 162.415905,9.52554545 162.688892,11.981328 C162.755308,12.5789816 162.845292,13.1747786 162.954737,13.7653769 C162.980982,13.9066675 163.117922,14.1146116 163.223082,14.1279794 C163.342168,14.1433895 163.534812,14.0050696 163.604978,13.8790035 C163.827617,13.4792681 164.015441,13.0576243 164.2038,12.6382085 C164.599265,11.7566741 164.936169,10.8413488 165.395552,9.9978756 C165.696926,9.44441013 166.118458,8.93179082 166.577662,8.50791907 C167.478394,7.67577139 168.706747,7.70250705 169.643722,8.48563935 C170.390018,9.10928595 170.909925,9.91581195 171.339848,10.7895485 C171.657649,11.4349178 171.952775,12.0921696 172.361987,12.7575907 C172.471075,12.2923158 172.593732,11.8298259 172.687286,11.361209 C173.167201,8.9568555 173.617299,6.54581806 174.128636,4.14889111 C174.271647,3.47827142 174.541956,2.82436153 174.833511,2.20312856 C175.42894,0.934855282 176.644081,0.358738757 177.959917,0.65450209 C179.191305,0.93095633 179.984913,1.94319845 179.998482,3.39026651 C180.023299,6.03078511 179.744956,8.65088063 179.079539,11.1942968 C178.401981,13.784686 177.597482,16.340913 176.784591,18.8900847 C176.390376,20.126238 175.792268,21.2764288 174.852436,22.1859985 C173.59891,23.3993151 171.976877,23.4149109 170.731028,22.1880408 C170.31396,21.7773512 169.937777,21.3044641 169.617477,20.8079976 C168.794052,19.5309981 168.378412,18.0781744 168.045436,16.5969441 C168.015263,16.4627088 167.980091,16.3295874 167.91296,16.0572178" id="Fill-1" fill="#FD2F6A"></path>
                            <path d="M194.854277,11.4730288 C194.86709,9.98900009 194.699638,8.95760472 194.313128,8.11595237 C193.948684,7.32214825 193.368563,6.79710091 192.528633,6.60332471 C190.864078,6.21943884 189.566991,6.9494453 188.965338,8.66721541 C188.408885,10.2557403 188.390378,11.8965132 188.671541,13.5453525 C188.852161,14.6049802 189.211267,15.6017268 190.030732,16.304051 C190.383787,16.6069065 190.878492,16.8353314 191.333513,16.8925293 C192.653733,17.0588065 193.614847,16.4182635 194.227533,15.090979 C194.756582,13.9446378 194.856413,12.7178163 194.854277,11.4730288 M201,11.4499297 C200.953911,14.5727147 200.503694,17.2267337 198.924377,19.5437984 C197.313207,21.9076114 195.075115,23.150199 192.277188,23.3003435 C190.665662,23.3868736 189.072643,23.2622115 187.558812,22.6302848 C185.377308,21.7195183 183.839988,20.1018445 183.0538,17.8406944 C181.732512,14.0412509 181.584279,10.1827763 183.006287,6.37178323 C185.770047,-1.03497748 194.865666,-1.27018549 198.700337,3.66973269 C199.892966,5.20582615 200.582171,6.94137893 200.783967,8.88592403 C200.884866,9.8566383 200.94875,10.8313858 201,11.4499297" id="Fill-3" fill="#FD2F6A"></path>
                            <path d="M211.557315,10.0523345 C212.27741,10.0417833 212.963531,9.89595128 213.56915,9.47748493 C214.394859,8.90696889 214.58633,8.05251372 214.495303,7.11911331 C214.412953,6.27370199 213.850725,5.79494332 213.114197,5.51741026 C212.385978,5.24308022 211.664037,5.33521441 210.959082,5.62895104 C210.674737,5.74746312 210.546781,5.94529728 210.554167,6.28274584 C210.5754,7.2698441 210.561552,8.25788442 210.561737,9.24554792 C210.561737,9.99091168 210.591833,10.0227536 211.326884,10.0519576 C211.40351,10.0549723 211.480505,10.0523345 211.557315,10.0523345 M215.941401,14.4231505 C216.964121,15.7267835 217.940496,16.9554278 218.898592,18.19858 C219.410783,18.8633028 219.950854,19.5178512 220.366478,20.24362 C220.668549,20.7708009 220.87036,21.3933191 220.968404,21.9985032 C221.119624,22.9328457 220.725418,23.5231451 219.842101,23.8474048 C218.464689,24.3531066 217.181627,24.1437792 216.010641,23.2439164 C214.555126,22.1254939 213.442302,20.6845076 212.361975,19.2116793 C211.830766,18.4877947 211.282571,17.7767222 210.74213,17.0599973 C210.698371,17.0771429 210.654426,17.094477 210.610851,17.1116226 C210.631716,17.4441724 210.676583,17.7772874 210.669567,18.109272 C210.643902,19.3153067 210.66292,20.5271823 210.548628,21.7253037 C210.399254,23.2932807 209.735659,23.9981355 208.219582,24.2513633 C207.608424,24.3534834 206.953876,24.3467005 206.341795,24.2460877 C205.013866,24.0279049 204.336238,23.2365682 204.28897,21.8144232 C204.130549,17.0477504 203.857282,12.2810776 204.090298,7.50950605 C204.150675,6.2710642 204.347501,5.05862341 204.918776,3.92211326 C205.80117,2.16685322 207.180983,1.0895049 209.040675,0.673299503 C211.3315,0.160626405 213.63045,0.19981641 215.882501,0.882815301 C219.027655,1.83656437 220.703815,4.18608056 220.790042,7.59579943 C220.835648,9.40155429 220.434241,11.0496071 219.270457,12.4527223 C218.556455,13.3137719 217.669999,13.9112311 216.602966,14.2217365 C216.413525,14.2767533 216.225193,14.3366688 215.941401,14.4231505" id="Fill-5" fill="#FD2F6A"></path>
                            <path d="M43.562221,7.88985374 C43.562221,8.45414566 43.5723757,9.01881441 43.5576052,9.58291792 C43.5509584,9.83256292 43.6314579,9.95653758 43.8783108,9.99459666 C44.9074492,10.1534274 45.8806441,10.0173944 46.7218271,9.35946208 C47.705546,8.59017864 47.8037702,6.8160976 46.9354463,6.01195806 C46.1622078,5.29599502 44.814764,5.12152613 43.918376,5.66546963 C43.7475914,5.76909586 43.5960086,6.03908929 43.5780993,6.24521128 C43.5308335,6.78972001 43.5620363,7.34119996 43.562221,7.88985374 M48.9455341,14.4243353 C49.9469776,15.7036482 50.9114948,16.9209738 51.8590259,18.151865 C52.3802418,18.8292037 52.9345069,19.4927884 53.3576832,20.231926 C53.6667571,20.7717245 53.8691137,21.4108157 53.9699227,22.0308774 C54.1148588,22.9222514 53.732486,23.5057612 52.8985036,23.8256837 C51.5117332,24.3577573 50.2121091,24.1608674 49.0221563,23.2529132 C47.7779218,22.3033202 46.7814633,21.1108649 45.8435331,19.8620746 C45.1437781,18.9300038 44.4497466,17.9934111 43.7529458,17.0587025 L43.632935,17.1054285 C43.632935,17.216026 43.6344121,17.3266234 43.6327504,17.4370324 C43.6109638,18.8621757 43.6628454,20.293725 43.5463426,21.7107665 C43.4163617,23.2936101 42.749102,23.9877174 41.2338277,24.2481019 C40.62325,24.353047 39.9687298,24.3472062 39.356121,24.2496092 C38.0269558,24.0378348 37.3392019,23.2489566 37.2911976,21.8292773 C37.1300139,17.0626591 36.8576818,12.296041 37.0899488,7.52433577 C37.1501388,6.28590813 37.3440023,5.07329283 37.9132225,3.93566525 C38.7920705,2.17891805 40.1670245,1.09574134 42.0273758,0.677279781 C44.3332439,0.158583402 46.6466819,0.197207723 48.912485,0.894329629 C52.0569513,1.86182179 53.7180848,4.21338354 53.7902758,7.62890406 C53.8275715,9.38263668 53.445568,10.9892201 52.3381457,12.3695214 C51.6062648,13.2819975 50.6893826,13.9122334 49.5719902,14.2306485 C49.3844042,14.2841573 49.1990337,14.3457678 48.9455341,14.4243353" id="Fill-7" fill="#FD2F6A"></path>
                            <path d="M98.2410601,11.5094228 C98.2410601,12.8184058 98.240868,14.1273887 98.2412521,15.4363717 C98.2414442,16.0196652 98.3299833,16.117094 98.9457238,16.156943 C100.424769,16.2523611 101.394858,15.4943172 102.104515,14.3761704 C102.872942,13.1655303 103.030046,11.8225477 102.820702,10.451415 C102.635557,9.23876413 102.175577,8.12902587 101.158241,7.29950978 C100.534434,6.79079596 99.8067234,6.62354008 99.0096794,6.73467841 C98.4411853,6.81401072 98.2416362,7.05365276 98.2414442,7.58247384 C98.2406759,8.89145682 98.2410601,10.2004398 98.2410601,11.5094228 M98.5059091,23.3248175 C97.5993916,23.2458508 96.7318621,23.2226361 95.8843066,23.086455 C93.3497067,22.6790087 92.0698268,21.2413392 92.0097124,18.7902636 C91.9914669,18.0446496 92.0045269,17.2983045 92.0045269,16.5523249 C92.0043348,12.0157603 92.0039507,7.47901282 92.004911,2.94226537 C92.005103,1.80638766 92.4103471,1.23698647 93.5285134,0.831550877 C94.9026941,0.333439075 96.343135,0.296697617 97.7851125,0.336729355 C100.933916,0.424104563 103.754108,1.37042559 106.087046,3.41917314 C108.792002,5.79475515 110.010615,8.79549033 109.99993,12.2736817 C109.99429,13.9782294 109.742501,15.6451217 109.055507,17.2266495 C107.596436,20.5856596 104.868625,22.4274851 101.183017,23.0625091 C100.290712,23.2160555 99.3740149,23.2431089 98.5059091,23.3248175" id="Fill-9" fill="#FD2F6A"></path>
                            <g id="Group-13" transform="translate(222.000000, 0.324818)">
                                <mask id="mask-2" fill="white">
                                    <use xlink:href="#path-1"></use>
                                </mask>
                                <g id="Clip-12"></g>
                                <path d="M6.21126947,11.6878866 C6.21126947,13.0568315 6.21089053,14.4259654 6.21126947,15.7949102 C6.21145895,16.4002016 6.29729053,16.5001701 6.90436421,16.5415559 C8.36331158,16.6411465 9.32356421,15.8599181 10.0208274,14.7020598 C10.7931221,13.4200441 10.9411011,12.0048 10.7122168,10.5527055 C10.5248274,9.36347717 10.0848695,8.28139843 9.16308,7.44687874 C8.56434316,6.90508346 7.85684842,6.70268976 7.06465895,6.78470551 C6.44015368,6.84952441 6.21145895,7.11106772 6.21126947,7.7224063 C6.21089053,9.04429606 6.21126947,10.3659969 6.21126947,11.6878866 M6.43162737,23.9533984 C5.53636421,23.868737 4.68164842,23.8379339 3.84493263,23.6988472 C1.42440632,23.2967055 0.156637895,21.8279811 0.0685326316,19.3641071 C0.0393536842,18.5465953 0.0588694737,17.7273827 0.05868,16.909115 C0.0581115789,12.2504693 0.0581115789,7.59163465 0.05868,2.93298898 C0.05868,1.67138268 0.484806316,1.06363465 1.68796421,0.646941732 C3.02299579,0.184327559 4.41183789,0.141618898 5.80295368,0.186973228 C8.90880632,0.288453543 11.6876274,1.27491024 13.9819642,3.40127244 C16.6281537,5.85380787 17.8218379,8.94376063 17.8116715,12.5214614 C17.8057326,14.4297449 17.5175432,16.2885165 16.7153116,18.0325795 C15.2179011,21.2869417 12.5832695,23.0593512 9.11912211,23.6799496 C8.22310105,23.8403906 7.30320632,23.8681701 6.43162737,23.9533984" id="Fill-11" fill="#FD2F6A" mask="url(#mask-2)"></path>
                            </g>
                            <path d="M139,9.78981632 C138.835382,11.8169085 138.68987,13.8455029 138.49476,15.8697786 C138.441496,16.4208638 138.283246,16.9730756 138.09547,17.4984372 C137.880096,18.1002185 137.36926,18.3454373 136.726613,18.323469 C136.515678,18.316334 136.302042,18.2986842 136.095546,18.2573763 C135.220736,18.0821932 134.883008,17.6901435 134.812761,16.7111458 C134.751584,15.8605782 134.736724,15.0070064 134.688285,14.1555 C134.67246,13.8766716 134.635213,13.5957777 134.570949,13.3240843 C134.506877,13.0540807 134.304626,12.8691339 134.019006,12.8589947 C133.608522,12.8445369 133.190127,12.8409694 132.785819,12.9008659 C132.359704,12.9639543 132.164015,13.1952787 132.147804,13.6184971 C132.129084,14.1040529 132.148383,14.5926129 132.179454,15.0781687 C132.224613,15.7822809 132.269386,16.4845156 132.026801,17.1660962 C131.668424,18.1728828 130.710823,18.4979011 129.773485,17.9404319 C129.396581,17.7162426 129.121382,17.3979838 128.971624,17.0070607 C128.750461,16.4300642 128.526403,15.8457449 128.397295,15.2454658 C127.947442,13.1550973 127.942038,11.0356256 128.077322,8.91634161 C128.136955,7.98278265 128.241554,7.04772159 128.401154,6.12561619 C128.599738,4.97819488 129.436723,4.38204651 130.594644,4.47292393 C131.458068,4.54070647 131.983765,5.03170741 132.028538,5.87514 C132.065398,6.56742316 132.031626,7.26289829 132.058065,7.95593251 C132.073118,8.34666786 132.130435,8.73796651 132.199717,9.12382002 C132.270158,9.51812288 132.555778,9.70513509 132.948893,9.75451683 C132.977455,9.75808433 133.00621,9.76033749 133.035158,9.76221512 C134.216817,9.84351662 134.645634,9.46742679 134.692723,8.31794008 C134.723022,7.57871611 134.688671,6.82822633 134.812568,6.10383565 C135.046468,4.73466592 136.238356,4.05608948 137.612617,4.42372995 C138.146612,4.5666178 138.531621,4.87605166 138.675203,5.39578038 C138.79196,5.8178722 138.889225,6.25723824 138.902928,6.69153468 C138.935542,7.72160395 138.913349,8.7533631 138.913349,9.78437119 C138.942104,9.78624882 138.971052,9.78793869 139,9.78981632" id="Fill-14" fill="#FD2F6A"></path>
                            <path d="M81.0403057,10.7319739 C81.2010526,10.7319739 81.3631535,10.7444271 81.5225463,10.7299595 C82.4170032,10.6491969 82.7268907,10.382186 82.775637,9.52584638 C82.8369568,8.44571574 82.6442927,7.39506984 82.112145,6.42811668 C81.5536898,5.41299899 80.8021836,5.3932204 80.1742842,6.36310373 C79.6313041,7.20186234 79.4045949,8.13475239 79.3647467,9.10518512 C79.3115513,10.3981187 79.6783095,10.7433283 81.0403057,10.7319739 M72.0090775,17.2264929 C72.0732988,14.7144292 72.5733358,12.2556577 73.0329442,9.7954212 C73.315557,8.28272552 73.6894724,6.78486379 74.0436572,5.28498757 C74.1274158,4.93117062 74.2790711,4.58834177 74.4297592,4.25265518 C75.4379575,2.00833491 77.1630366,0.63097605 79.7740613,0.380813545 C82.5083058,0.118747261 84.8904935,0.745435469 86.6238904,2.9216295 C87.4013173,3.89773942 87.8771745,5.00973556 88.258634,6.16403591 C88.8679634,8.00655784 89.1544449,9.90493597 89.3531056,11.8190637 C89.5655004,13.8666969 89.8320578,15.9106674 89.981005,17.9623296 C90.0429051,18.8173873 89.948314,19.7044935 89.7728658,20.5487462 C89.4505983,22.0997171 88.3362026,23.0644727 86.7966304,23.2835022 C85.4522371,23.4748783 84.4722807,23.0018405 83.8532795,21.8552318 C83.3667832,20.9543904 83.2218982,19.9726033 83.1300152,18.9836739 C83.0493516,18.1181776 82.9868712,17.2504836 82.943928,16.3824234 C82.9207154,15.9148795 82.7029044,15.592745 82.2202768,15.5601469 C81.4571643,15.5085028 80.6882487,15.5099679 79.9230084,15.5310284 C79.5231723,15.5418334 79.3067153,15.7965743 79.2291467,16.1774952 C78.98851,17.3585333 78.7441979,18.5393882 78.4745455,19.7149322 C78.2617638,20.643427 77.9474273,21.5402395 77.3075347,22.2978693 C76.375551,23.4012581 74.6673009,23.5010667 73.5995238,22.5115879 C72.4555321,21.4516021 72.0970917,20.0943881 72.0133331,18.6445078 C71.9860583,18.1731181 72.0090775,17.6991645 72.0090775,17.2264929" id="Fill-16" fill="#FD2F6A"></path>
                            <path d="M24.6365315,8.82531715 L24.6365315,10.9661338 C24.6367163,11.7210514 24.787513,11.8692282 25.5791954,11.8920106 C27.4111161,11.9446835 28.9122452,10.5970589 29.0318106,8.79269275 C29.1766937,6.60521776 27.2828651,5.1391247 25.1674614,5.79398203 C24.8021121,5.907165 24.6047459,6.07520798 24.6256283,6.50278808 C24.6636971,7.27538486 24.6365315,8.05089778 24.6365315,8.82531715 M18,11.9177091 C18.1631782,8.79506212 18.3341181,5.6725974 18.4795556,2.54903912 C18.4972963,2.16702382 18.6597354,1.92881104 18.9410007,1.71957747 C19.694984,1.15858363 20.5596624,0.852752684 21.4729432,0.675049957 C24.5343372,0.0792446118 27.558956,0.1829501 30.4285278,1.45949358 C33.3067851,2.73986451 34.7927605,5.01409488 34.9812564,8.14293868 C35.2732401,12.9913981 32.1305342,16.5598511 27.1871387,17.3032864 C26.5349801,17.4013418 25.8702552,17.4308678 25.2099654,17.4538325 C24.9094808,17.4642213 24.8246577,17.56738 24.7945353,17.850064 C24.6618491,19.101638 24.4988556,20.3501135 24.3565598,21.6007762 C24.303707,22.0664485 24.0427696,22.3928747 23.6609732,22.6194229 C22.4512735,23.3371597 21.1709803,23.5400142 19.8138103,23.0754355 C18.9552303,22.7812691 18.4738268,22.215172 18.4294748,21.2914823 C18.3248781,19.1089283 18.1857238,16.9280147 18.0905519,14.7452784 C18.0497112,13.80555 18.0837143,12.8627231 18.0837143,11.9213543 C18.0559943,11.9200785 18.0279048,11.9189849 18,11.9177091" id="Fill-18" fill="#FD2F6A"></path>
                            <path d="M140,11.7940565 C140.019156,10.3457827 140.180065,8.9461435 140.61452,7.57620488 C141.111232,6.01024253 142.100824,4.99596819 143.789413,4.62860931 C145.179362,4.32603479 146.56299,4.19219662 147.964242,4.49848371 C148.523784,4.62081291 149.033522,4.8470941 149.395185,5.30856665 C149.759721,5.77356614 149.790753,6.30761945 149.681565,6.84575658 C149.615286,7.17283406 149.363003,7.41934876 149.026434,7.4865463 C148.412489,7.60924676 147.789732,7.6992766 147.166592,7.76925856 C146.607432,7.83200101 146.037353,7.81473755 145.481642,7.89492908 C144.43305,8.0465876 144.191111,8.34767709 144.193602,9.37271788 C144.194559,9.88728019 144.194559,9.88226822 144.71579,9.88857959 C145.270544,9.89544784 145.824915,9.9114119 146.379477,9.92700469 C146.484068,9.92997475 146.589808,9.94278312 146.692484,9.96375915 C147.119085,10.0506333 147.586488,10.1328667 147.71579,10.6051057 C147.855819,11.115213 147.769235,11.6236495 147.392631,12.0403856 C146.925036,12.5577323 146.277759,12.6975106 145.61784,12.7903249 C145.230125,12.8448997 144.838963,12.8851811 144.4478,12.906714 C144.219079,12.9193367 144.165634,13.0110372 144.171572,13.2180131 C144.199731,14.2142814 144.634953,14.6779815 145.666687,14.6807659 C146.476789,14.6829935 147.28689,14.6029876 148.096992,14.5584367 C148.221122,14.5515685 148.34506,14.5415445 148.468807,14.5292931 C149.653789,14.4127183 150.128854,15.3304658 149.970435,16.2133152 C149.836153,16.9615838 149.328331,17.4195294 148.67569,17.7430799 C147.585722,18.283259 146.399208,18.3428458 145.207905,18.3211272 C144.306046,18.3047919 143.420471,18.1791214 142.567652,17.8655948 C141.571164,17.4989784 140.912394,16.8385121 140.580423,15.8552377 C140.131601,14.5257661 140.032757,13.1528574 140,11.7940565" id="Fill-20" fill="#FD2F6A"></path>
                            <path d="M55,12.6550398 C55.0293954,10.2071154 55.2897287,7.89227204 55.9955865,5.62861372 C56.7918352,3.07466313 58.3760652,1.4265049 61.0578471,0.825446309 C63.281244,0.326940599 65.4947199,0.107393346 67.7370401,0.608641112 C68.6324984,0.808811172 69.448589,1.17935429 70.0291488,1.93579603 C70.614669,2.6988187 70.6650087,3.57572809 70.4932291,4.46031523 C70.3890591,4.99775813 69.987444,5.4054104 69.4489565,5.51673786 C68.4669654,5.71946717 67.470644,5.86790378 66.4737714,5.98307011 C65.579048,6.08653701 64.6668711,6.05783683 63.7774756,6.18890709 C62.0971593,6.4362405 61.7069349,6.93182136 61.7100582,8.61123902 C61.7118954,9.46292149 61.7118954,9.45487813 62.5856746,9.46529794 C63.4576165,9.47571775 64.3295585,9.50240709 65.2013167,9.52781681 C65.3688707,9.53275251 65.5380781,9.55304372 65.7021414,9.58741082 C66.3844828,9.72999771 67.1351686,9.86198198 67.3436925,10.6363385 C67.5738954,11.4913114 67.4285718,12.3380582 66.8024491,13.0296046 C66.0558052,13.8545978 65.0356,14.08164 63.9955529,14.2313562 C63.3448116,14.3249517 62.6880074,14.3818037 62.0321219,14.4346339 C61.7580095,14.4567532 61.6790093,14.5711883 61.6746,14.8369849 C61.6485115,16.4935521 62.391481,17.3318899 64.0609578,17.3379224 C65.3569288,17.3424925 66.653451,17.210691 67.9494221,17.1375695 C68.1480249,17.1264185 68.3466278,17.1097834 68.5443121,17.0894922 C70.4746733,16.8918814 71.2185614,18.4504658 70.9453676,19.8944323 C70.7168181,21.103496 69.9146903,21.8427542 68.88732,22.3659384 C67.1294733,23.2614937 65.2158307,23.3569173 63.2939207,23.3176145 C61.8814703,23.2887315 60.4943734,23.0858194 59.1576162,22.5895073 C57.5291094,21.9849755 56.4539715,20.8852284 55.9169537,19.2303064 C55.2121983,17.0578671 55.0573211,14.8183389 55,12.6550398" id="Fill-22" fill="#FD2F6A"></path>
                            <path d="M7.21452077,24.3248175 C5.46242967,24.2368709 3.75153828,24.0191793 2.15026753,23.2501663 C0.315409165,22.3691868 -0.420299884,20.547462 0.236136515,18.5649744 C0.697426089,17.1712566 1.8241645,16.4928381 3.22017242,16.8047177 C4.40227293,17.0687467 5.57039498,17.40162 6.75690974,17.6389814 C7.19428877,17.7263607 7.66937289,17.652599 8.12275359,17.6062615 C8.47258325,17.5705154 8.77900607,17.4078614 8.86177333,17.0048199 C8.94417275,16.6027241 8.84613952,16.2307003 8.52941677,15.9846389 C8.13985883,15.6822159 7.71369936,15.4289674 7.30023088,15.1600209 C6.1878388,14.4365889 5.05668613,13.7424723 3.96379034,12.9891573 C0.675354817,10.7220253 -0.0969557568,4.21302815 4.90494614,1.38133541 C7.61290722,-0.151773143 10.3916803,0.0379268176 13.0580738,1.59883786 C14.1447161,2.2350798 14.8399611,3.21478648 14.9909654,4.54117315 C15.1721338,6.13139974 14.3111703,7.1795724 12.7354654,7.1714397 C11.7577081,7.16633312 10.7816061,7.01219008 9.80274521,6.97190485 C9.38228749,6.95450465 8.938471,6.99289856 8.53861313,7.11848258 C7.93238888,7.30874994 7.77715427,7.82999929 8.2347653,8.27654127 C8.86324475,8.88951991 9.5726522,9.42079328 10.2783811,9.94279915 C11.272508,10.6783357 12.3300897,11.3272495 13.2933168,12.1017474 C13.9387176,12.6207271 14.5019028,13.2622648 15.040074,13.9039916 C15.9683549,15.0113627 16.1099789,16.3515561 15.9354319,17.7373303 C15.4969493,21.2164238 13.4022017,23.3855852 9.85755553,24.0169097 C8.98555638,24.1723767 8.09608414,24.2249555 7.21452077,24.3248175" id="Fill-24" fill="#FD2F6A"></path>
                            <path d="M123.254036,9.6808241 C123.254036,10.0240848 123.246232,10.3395338 123.255306,10.6544228 C123.315375,12.7408656 123.380162,14.8273085 123.439686,16.9137513 C123.448579,17.2209874 123.417365,17.5302767 123.440412,17.8358329 C123.462552,18.1286964 123.341326,18.3284186 123.151865,18.5203011 C122.319976,19.3619339 120.982858,19.572482 119.954068,19.0127001 C119.589118,18.8142846 119.372436,18.5456864 119.346484,18.0751261 C119.235421,16.0612925 119.298575,14.0508187 119.388768,12.039785 C119.421797,11.3064128 119.455189,10.5730407 119.489851,9.80663037 C119.216547,9.78591154 118.966291,9.77060573 118.716761,9.74746036 C118.311161,9.70994247 117.903565,9.68362395 117.500869,9.62389397 C116.672247,9.50088754 116.247229,9.07792462 116.091522,8.23330538 C115.982818,7.64272521 115.951785,7.04747863 116.105496,6.4596983 C116.284069,5.77840322 116.817428,5.3222155 117.485262,5.32481752 C119.859155,5.33397484 122.233049,5.3477874 124.606399,5.3916516 C125.01218,5.3993045 125.437016,5.50775175 125.815395,5.66510291 C126.744554,6.05166788 127.224923,7.23749463 126.896995,8.21239989 C126.765606,8.60363125 126.480506,8.8722295 126.130801,8.99747581 C125.536647,9.21026386 124.91999,9.36052209 124.306599,9.51078032 C123.965968,9.59421563 123.612996,9.62464059 123.254036,9.6808241" id="Fill-26" fill="#FD2F6A"></path>
                        </g>
                        <circle id="Oval" fill="#FD2F6A" cx="244.5" cy="19.8248175" r="3.5"></circle>
                    </g>
                </g>
            </g>
        </g>
    </g>
</svg>