<?xml version="1.0" encoding="UTF-8"?>
<svg width="34px" height="38px" viewBox="0 0 34 38" version="1.1" xmlns="http://www.w3.org/2000/svg" xmlns:xlink="http://www.w3.org/1999/xlink">
    <!-- Generator: Sketch 63.1 (92452) - https://sketch.com -->
    <title>Group 3</title>
    <desc>Created with Sketch.</desc>
    <g id="Page-1" stroke="none" stroke-width="1" fill="none" fill-rule="evenodd">
        <g id="Birthday-Ad-Words-Landing-Page-1a" transform="translate(-734.000000, -1632.000000)" fill="#FFFFFF">
            <g id="Group-3" transform="translate(734.000000, 1632.000000)">
                <path d="M25.8636215,15.6812847 L17.4817709,20.945984 C17.2898141,21.0813388 17,20.945984 17,20.7209776 L17,11.2707097 C17,11.1353548 17.1449071,11 17.2898141,11 C20.1804397,11.0896515 22.8301797,12.2146744 24.7572634,14.0147255 C25.1901057,14.4190349 25.5758886,14.8690297 25.9127428,15.3190425 C26.0576499,15.410449 26.0087212,15.5915117 25.8638142,15.6811632 L25.8636215,15.6812847 Z" id="Fill-1"></path>
                <path d="M29.0200727,9.6411955 C28.9714383,9.59366707 28.9246715,9.54796377 28.8760372,9.54796377 L30.1686118,8.00324298 C30.264013,7.86248282 30.264013,7.62849094 30.1199775,7.53525922 L28.4439211,6.17885509 C28.2998856,6.08562337 28.060449,6.08562337 27.9650479,6.22638352 L26.6724732,7.72173203 C24.3734986,6.17701124 21.7396,5.14782135 18.8199099,4.86628232 L18.8199099,2.76035541 L20.8794479,2.76035541 L20.8794479,0 L13.1202648,0 L13.1202648,2.76035541 L15.1798028,2.76035541 L15.1798028,4.86628232 C11.2047718,5.28673765 7.66197183,7.01975639 4.97932394,9.63924868 C1.91530141,12.633596 0,16.7998682 0,21.386577 C0,30.5599947 7.61312676,38 17,38 C21.6933408,38 25.9544507,36.1280654 29.0206761,33.1339053 C32.0846986,30.1395581 34,25.9732858 34,21.386577 C34,16.7998682 32.084507,12.6357487 29.0206761,9.64112062 L29.0200727,9.6411955 Z M26.3376163,30.5123352 C23.9432501,32.852254 20.6399825,34.3037524 16.9995882,34.3037524 C9.7211938,34.3037524 3.78172901,28.5016898 3.78172901,21.3864647 C3.78172901,17.8290394 5.26700225,14.6007002 7.66136845,12.2607814 C10.0557346,9.92086259 13.3590023,8.46936416 16.9993966,8.46936416 C20.639791,8.46936416 23.9430586,9.92086259 26.3374248,12.2607814 C28.731791,14.6007002 30.2170642,17.8288522 30.2170642,21.3864647 C30.2170642,24.94389 28.731791,28.1722292 26.3374248,30.512148 L26.3376163,30.5123352 Z" id="Fill-2"></path>
            </g>
        </g>
    </g>
</svg>